<svg width="1943" height="600" viewBox="0 0 1943 600" fill="none" xmlns="http://www.w3.org/2000/svg">
<path d="M664.119 173.968C664.119 266.469 728.224 336.167 825.457 336.167C907.202 336.167 953.668 281.097 953.668 281.097L914.516 226.026C914.516 226.026 880.527 265.178 826.748 265.178C781.573 265.178 744.143 224.305 744.143 173.968C744.143 118.037 780.282 89.2114 825.027 89.2114C844.818 89.2114 872.353 96.0952 872.353 113.735V130.514H941.191V90.0719C941.191 32.4203 859.876 18.2225 823.306 18.2225C731.666 18.2225 664.119 85.7695 664.119 173.968ZM948.387 220.864C948.387 290.132 1003.89 336.167 1073.59 336.167C1143.28 336.167 1198.78 290.132 1198.78 220.864C1198.78 151.165 1143.28 104.27 1073.16 104.27C1003.89 104.27 948.387 151.165 948.387 220.864ZM1023.25 220.864C1023.25 187.305 1046.48 166.224 1073.59 166.224C1100.69 166.224 1123.92 187.305 1123.92 220.864C1123.92 253.992 1100.69 274.213 1073.59 274.213C1046.48 274.213 1023.25 253.992 1023.25 220.864ZM1212.98 299.597C1212.98 321.539 1222.45 331.004 1244.39 331.004H1313.23V268.62H1296.88C1290.85 268.62 1287.41 265.178 1287.41 259.155V54.7925C1287.41 32.8505 1277.95 23.3853 1256.01 23.3853H1187.17V85.7695H1203.52C1209.54 85.7695 1212.98 89.2114 1212.98 95.2347V299.597ZM1328.34 299.597C1328.34 321.539 1337.8 331.004 1359.75 331.004H1428.58V268.62H1412.24C1406.21 268.62 1402.77 265.178 1402.77 259.155V54.7925C1402.77 32.8505 1393.3 23.3853 1371.36 23.3853H1302.52V85.7695H1318.87C1324.9 85.7695 1328.34 89.2114 1328.34 95.2347V299.597ZM1423.47 264.748C1423.47 308.632 1457.46 336.167 1498.77 336.167C1545.23 336.167 1560.72 303.899 1560.72 303.899H1561.58C1561.58 303.899 1561.58 306.05 1561.58 307.771C1561.58 317.667 1569.32 331.004 1590.84 331.004H1655.37V268.62H1639.02C1633 268.62 1629.56 265.178 1629.56 259.155V194.619C1629.56 143.851 1604.17 104.27 1526.73 104.27C1501.35 104.27 1438.53 106.851 1438.53 156.328V180.852H1507.37V170.956C1507.37 162.351 1517.27 160.2 1526.73 160.2C1545.23 160.2 1555.13 167.945 1555.13 189.026V191.608H1552.12C1517.7 191.608 1423.47 198.922 1423.47 264.748ZM1498.34 260.875C1498.34 243.236 1525.44 236.782 1549.1 236.782H1555.99V240.224C1555.99 258.294 1538.78 279.376 1519.42 279.376C1504.79 279.376 1498.34 271.201 1498.34 260.875ZM1669.13 331.004H1738.83V325.841C1738.83 318.957 1738.4 313.364 1738.4 313.364H1739.26C1739.26 313.364 1759.05 336.167 1799.92 336.167C1858.87 336.167 1903.18 290.562 1903.18 220.433C1903.18 151.596 1863.6 104.27 1803.37 104.27C1764.21 104.27 1743.56 125.781 1743.56 125.781H1742.7C1742.7 125.781 1743.56 118.037 1743.56 106.851V54.7925C1743.56 32.8505 1734.1 23.3853 1712.16 23.3853H1643.32V85.7695H1659.67C1665.69 85.7695 1669.13 89.2114 1669.13 95.2347V331.004ZM1741.41 221.724C1741.41 183.433 1762.49 167.084 1784.87 167.084C1810.68 167.084 1828.32 188.596 1828.32 221.724C1828.32 255.713 1808.1 274.643 1784.87 274.643C1755.61 274.643 1741.41 248.399 1741.41 221.724Z" fill="#FFFF88"/>
<path d="M672.933 464.672C672.933 527.633 718.288 573.585 775.579 573.585C819.74 573.585 844.208 545.238 844.208 545.238H844.805C844.805 545.238 844.506 549.713 844.506 554.189V570.004H863.603V490.334C863.603 477.503 858.232 472.132 845.402 472.132H824.514V490.632H837.345C841.523 490.632 843.91 492.721 843.91 497.197V523.157C843.91 523.157 819.143 553.891 777.667 553.891C730.223 553.891 694.715 516.294 694.715 464.672C694.715 414.245 730.82 376.349 777.966 376.349C815.563 376.349 838.837 397.833 838.837 397.833L851.071 382.317C851.071 382.317 826.305 356.656 777.667 356.656C718.288 356.656 672.933 404.398 672.933 464.672ZM875.914 529.125C875.914 558.964 901.874 573.585 926.939 573.585C964.536 573.585 977.068 541.06 976.77 541.06H977.367C977.367 541.06 977.068 545.536 977.068 552.101C977.068 564.335 982.141 570.004 994.972 570.004H1015.56V552.399H1003.03C998.851 552.399 996.464 550.31 996.464 545.834V473.923C996.464 441.697 985.125 416.333 937.681 416.333C924.552 416.333 888.745 420.809 888.745 441.697V456.019H908.14V446.471C908.14 435.43 929.923 433.342 937.382 433.342C964.834 433.342 976.173 444.382 976.173 475.713V477.503H967.818C941.858 477.503 875.914 479.294 875.914 529.125ZM896.801 527.931C896.801 494.213 943.947 493.616 967.52 493.616H976.173V500.479C976.173 526.439 958.866 556.278 930.221 556.278C907.842 556.278 896.801 541.955 896.801 527.931ZM1029.97 570.004H1050.26V498.987C1050.26 492.124 1050.86 485.261 1052.65 478.995C1058.92 456.019 1077.12 434.834 1101.59 434.834C1129.93 434.834 1133.21 456.914 1133.21 479.592V570.004H1153.5V498.987C1153.5 490.931 1154.1 483.769 1156.19 477.205C1162.16 455.124 1180.96 434.834 1203.63 434.834C1231.09 434.834 1236.16 455.124 1236.16 479.592V551.802C1236.16 564.633 1241.53 570.004 1254.36 570.004H1275.55V552.399H1263.01C1258.84 552.399 1256.45 550.31 1256.45 545.834V474.519C1256.45 437.519 1243.02 416.333 1206.62 416.333C1181.26 416.333 1159.47 433.64 1151.42 453.93H1150.82C1146.34 429.164 1132.02 416.333 1104.27 416.333C1081 416.333 1057.42 433.938 1049.96 454.229H1049.37C1049.37 454.229 1049.96 449.455 1049.96 443.487V436.624C1049.96 425.285 1044.29 419.914 1031.76 419.914H1010.87V437.519H1023.41C1027.58 437.519 1029.97 439.906 1029.97 444.084V570.004ZM1275.74 495.108C1275.74 541.359 1309.76 573.585 1354.22 573.585C1388.24 573.585 1410.02 552.101 1410.02 552.101L1400.17 536.883C1400.17 536.883 1382.57 555.383 1355.12 555.383C1324.08 555.383 1297.53 533.6 1296.93 495.705H1412.11C1412.11 495.705 1412.7 489.14 1412.7 485.56C1412.7 448.261 1391.22 416.333 1349.74 416.333C1309.46 416.333 1275.74 445.874 1275.74 495.108ZM1297.83 479.592C1302.9 449.455 1324.68 433.342 1349.45 433.342C1371.53 433.342 1390.62 448.559 1391.82 479.592H1297.83ZM1441.31 551.802C1441.31 564.633 1446.68 570.004 1459.51 570.004H1506.06C1569.32 570.004 1611.39 531.81 1611.39 464.971C1611.39 398.728 1569.32 360.236 1506.06 360.236H1421.91V378.736H1441.31V551.802ZM1462.19 544.939V378.736H1503.97C1555.29 378.736 1589.61 409.172 1589.61 464.971C1589.61 521.068 1555.59 551.504 1503.97 551.504H1468.76C1464.58 551.504 1462.19 549.415 1462.19 544.939ZM1618.17 495.108C1618.17 541.359 1652.19 573.585 1696.65 573.585C1730.66 573.585 1752.44 552.101 1752.44 552.101L1742.6 536.883C1742.6 536.883 1724.99 555.383 1697.54 555.383C1666.51 555.383 1639.95 533.6 1639.35 495.705H1754.53C1754.53 495.705 1755.13 489.14 1755.13 485.56C1755.13 448.261 1733.65 416.333 1692.17 416.333C1651.89 416.333 1618.17 445.874 1618.17 495.108ZM1640.25 479.592C1645.32 449.455 1667.11 433.342 1691.87 433.342C1713.95 433.342 1733.05 448.559 1734.24 479.592H1640.25ZM1818.05 570.004H1840.13L1889.06 444.382C1890.85 439.011 1894.14 437.519 1899.51 437.519H1902.19V419.914H1894.43C1880.41 419.914 1875.93 422.898 1870.86 436.326L1834.76 530.02C1832.07 537.479 1829.68 547.625 1829.68 547.625H1829.09C1829.09 547.625 1826.7 537.479 1824.01 530.02L1787.91 436.326C1782.84 422.898 1778.36 419.914 1764.04 419.914H1755.98V437.519H1758.67C1764.04 437.519 1767.02 439.011 1769.11 444.382L1818.05 570.004Z" fill="#EEEEEE"/>
<path d="M370.614 122.728L392.844 177.195C427.566 154.595 471.01 163.375 490.379 203.371C510.526 244.931 494.641 302.54 454.551 328.456L457.485 335.669C457.485 335.669 645.641 284.851 570.14 158.831C570.14 158.831 516.438 38.3584 379.634 117.309C376.664 119.023 373.663 120.826 370.614 122.728Z" fill="#FFFF88"/>
<ellipse cx="43.6353" cy="43.6262" rx="43.6353" ry="43.6262" transform="matrix(0.866116 -0.499844 0.500156 0.865935 327.307 43.6211)" fill="#FFFF88"/>
<path d="M171.88 265.863L226.37 243.641C203.76 208.934 212.544 165.508 252.556 146.147C294.133 126.009 351.767 141.887 377.693 181.961L384.91 179.028C384.91 179.028 334.071 -9.05009 207.998 66.4196C207.998 66.4196 87.4749 120.099 166.459 256.846C168.174 259.815 169.977 262.815 171.88 265.863Z" fill="#EEEEEE"/>
<ellipse cx="43.6262" cy="43.6353" rx="43.6262" ry="43.6353" transform="matrix(-0.500156 -0.865935 0.866116 -0.499844 87.293 295.512)" fill="#EEEEEE"/>
<path d="M252.34 476.342L230.109 421.875C195.387 444.475 151.943 435.695 132.574 395.699C112.427 354.14 128.312 296.53 168.402 270.615L165.469 263.401C165.469 263.401 -22.6878 314.219 52.8134 440.24C52.8134 440.24 106.515 560.712 243.319 481.761C246.289 480.047 249.291 478.245 252.34 476.342Z" fill="#FFFF88"/>
<ellipse cx="43.6353" cy="43.6262" rx="43.6353" ry="43.6262" transform="matrix(-0.866116 0.499844 -0.500157 -0.865935 292.922 555.445)" fill="#FFFF88"/>
<path d="M451.068 333.204L396.578 355.425C419.187 390.133 410.404 433.558 370.391 452.92C328.814 473.058 271.181 457.18 245.254 417.106L238.037 420.039C238.037 420.039 288.877 608.117 414.95 532.647C414.95 532.647 535.472 478.967 456.488 342.22C454.774 339.251 452.971 336.252 451.068 333.204Z" fill="#EEEEEE"/>
<ellipse cx="43.6262" cy="43.6353" rx="43.6262" ry="43.6353" transform="matrix(0.500157 0.865935 -0.866116 0.499844 538.389 306.262)" fill="#EEEEEE"/>
<path fill-rule="evenodd" clip-rule="evenodd" d="M292.588 202.691C313.448 182.681 345.959 182.307 367.25 201.098C377.352 208.683 434.487 251.685 442.115 259.63C450.646 268.516 451.05 281.96 443.019 289.664C439.723 292.826 435.512 294.451 431.109 294.744L351.367 298.003L310.694 337.02L304.156 416.528C303.683 420.912 301.884 425.052 298.589 428.213C290.558 435.917 277.136 434.961 268.605 426.075C261.355 418.524 224.292 365.007 214.482 350.789C195.05 328.755 196.287 295.119 217.685 274.583L217.676 274.574L291.653 203.609C291.96 203.3 292.272 202.994 292.588 202.691ZM255.511 297.617L244.742 286.4C243.356 284.957 241.064 284.909 239.62 286.294L231.558 294.028C230.114 295.413 230.067 297.704 231.453 299.148L242.222 310.365L255.249 310.639L255.511 297.617ZM260.248 329.15L271.017 340.367C272.403 341.811 274.695 341.858 276.138 340.473L284.201 332.739C285.644 331.354 285.691 329.063 284.306 327.619L273.537 316.403L260.509 316.128L260.248 329.15ZM272.115 286.956L260.896 297.718L260.63 310.745L273.662 311.015L284.881 300.253C286.325 298.868 286.367 296.571 284.986 295.133L277.242 287.067C275.856 285.624 273.559 285.571 272.115 286.956ZM242.107 315.743L230.883 326.51C229.439 327.895 229.397 330.191 230.778 331.629L238.517 339.69C239.903 341.133 242.195 341.181 243.639 339.796L254.857 329.034L255.124 316.007L242.107 315.743ZM323.407 223.214C327.176 227.14 326.835 233.58 322.646 237.599C318.457 241.617 312.005 241.693 308.236 237.767C304.467 233.841 304.808 227.401 308.997 223.382C313.186 219.364 319.638 219.289 323.407 223.214ZM352.52 253.561C356.289 257.487 355.948 263.927 351.759 267.945C347.57 271.964 341.119 272.039 337.35 268.114C333.581 264.188 333.921 257.748 338.111 253.729C342.3 249.711 348.751 249.635 352.52 253.561ZM322.938 268.267C327.128 264.249 327.061 257.384 322.789 252.935C318.518 248.486 311.659 248.137 307.47 252.156C303.281 256.174 303.348 263.039 307.619 267.488C311.891 271.937 318.749 272.286 322.938 268.267ZM353.139 223.834C357.41 228.283 357.477 235.148 353.288 239.166C349.099 243.185 342.24 242.836 337.969 238.387C333.697 233.938 333.63 227.073 337.82 223.054C342.009 219.036 348.867 219.385 353.139 223.834Z" fill="#EEEEEE"/>
</svg>
