<svg width="180" height="180" viewBox="0 0 180 180" fill="none" xmlns="http://www.w3.org/2000/svg">
<mask id="mask0_788_93" style="mask-type:luminance" maskUnits="userSpaceOnUse" x="0" y="0" width="180" height="180">
<path d="M180 0H0V180H180V0Z" fill="white"/>
</mask>
<g mask="url(#mask0_788_93)">
<path d="M0 89.7907C0 40.186 40.186 0 89.7907 0C139.395 0 179.581 40.186 179.581 89.7907C179.581 139.395 139.395 179.581 89.7907 179.581C40.186 179.477 0 139.291 0 89.7907Z" fill="black"/>
</g>
<mask id="mask1_788_93" style="mask-type:luminance" maskUnits="userSpaceOnUse" x="0" y="0" width="180" height="180">
<path d="M180 0H0V180H180V0Z" fill="white"/>
</mask>
<g mask="url(#mask1_788_93)">
<path d="M135.735 48.1099C127.031 44.1771 117.969 41.3169 108.549 39.7676C107.356 41.9127 106.045 44.6538 105.091 46.9181C95.0748 45.3688 84.9394 45.3688 74.9234 46.9181C73.8502 44.4154 72.6578 42.0319 71.3462 39.7676C61.9263 41.3169 52.7449 44.1771 44.1597 48.2291C26.9893 73.8518 22.3389 98.7596 24.6045 123.429C34.7398 130.937 45.9483 136.657 57.9914 140.233C60.7339 136.538 63.1187 132.725 65.1458 128.673C61.2109 127.243 57.5145 125.455 53.9373 123.31C54.8912 122.595 55.7259 121.88 56.6798 121.165C77.7851 131.175 102.348 131.175 123.454 121.165C124.408 121.88 125.242 122.595 126.196 123.31C122.619 125.455 118.803 127.243 114.868 128.673C116.896 132.725 119.28 136.538 122.023 140.233C134.066 136.538 145.394 130.937 155.41 123.429C158.033 94.8268 150.64 70.0382 135.735 48.1099ZM68.0075 108.174C61.4494 108.174 56.2028 102.216 56.2028 94.9459C56.2028 87.6762 61.4494 81.5982 68.0075 81.5982C74.6849 81.5982 79.9314 87.557 79.9314 94.9459C79.8122 102.216 74.6849 108.174 68.0075 108.174ZM111.887 108.174C105.329 108.174 100.083 102.216 100.083 94.9459C100.083 87.6762 105.329 81.5982 111.887 81.5982C118.565 81.5982 123.811 87.557 123.692 94.9459C123.573 102.335 118.446 108.174 111.887 108.174Z" fill="white"/>
</g>
</svg>
