<svg width="181" height="180" viewBox="0 0 181 180" fill="none" xmlns="http://www.w3.org/2000/svg">
<path d="M180.227 90.0009C180.227 40.2943 139.932 0.000922122 90.2267 0.000922122C40.5214 0.000922122 0.226562 40.2943 0.226562 90.0009C0.226562 134.922 33.1387 172.156 76.164 178.906V116.016H53.312V90.0009H76.164V70.1729C76.164 47.6169 89.6014 35.1569 110.159 35.1569C120.005 35.1569 130.305 36.9142 130.305 36.9142V59.0635H118.956C107.776 59.0635 104.289 66.0009 104.289 73.1182V90.0009H129.251L125.26 116.016H104.289V178.906C147.315 172.156 180.227 134.922 180.227 90.0009Z" fill="#010201"/>
<path d="M125.26 116.015L129.251 90H104.29V73.1173C104.29 66 107.777 59.0626 118.957 59.0626H130.306V36.9133C130.306 36.9133 120.006 35.156 110.159 35.156C89.6018 35.156 76.1645 47.616 76.1645 70.172V90H53.3125V116.015H76.1645V178.905C80.7472 179.625 85.4432 180 90.2272 180C95.0112 180 99.7072 179.625 104.29 178.905V116.015H125.26Z" fill="white"/>
</svg>
