<svg width="180" height="181" viewBox="0 0 180 181" fill="none" xmlns="http://www.w3.org/2000/svg">
<circle cx="90" cy="91" r="90" fill="white"/>
<path fill-rule="evenodd" clip-rule="evenodd" d="M90.0745 0C40.2656 0 0 40.5623 0 90.7435C0 130.856 25.7996 164.81 61.5904 176.828C66.0652 177.731 67.7043 174.875 67.7043 172.473C67.7043 170.369 67.5568 163.158 67.5568 155.645C42.5002 161.055 37.2824 144.828 37.2824 144.828C33.2557 134.311 27.2893 131.608 27.2893 131.608C19.0883 126.049 27.8867 126.049 27.8867 126.049C36.9837 126.65 41.7572 135.364 41.7572 135.364C49.8089 149.185 62.7833 145.28 68.003 142.875C68.7478 137.016 71.1355 132.96 73.6706 130.707C53.6863 128.603 32.6602 120.791 32.6602 85.935C32.6602 76.0193 36.237 67.9069 41.9047 61.5976C41.0105 59.3445 37.878 50.0281 42.8008 37.5589C42.8008 37.5589 50.4062 35.1546 67.5549 46.8735C74.8969 44.8871 82.4686 43.8767 90.0745 43.8682C97.6799 43.8682 105.433 44.9209 112.592 46.8735C129.743 35.1546 137.348 37.5589 137.348 37.5589C142.271 50.0281 139.137 59.3445 138.242 61.5976C144.059 67.9069 147.489 76.0193 147.489 85.935C147.489 120.791 126.463 128.452 106.329 130.707C109.611 133.561 112.443 138.968 112.443 147.533C112.443 159.701 112.295 169.468 112.295 172.471C112.295 174.875 113.936 177.731 118.409 176.83C154.2 164.808 180 130.856 180 90.7435C180.147 40.5623 139.734 0 90.0745 0Z" fill="black"/>
</svg>
