<svg width="180" height="180" viewBox="0 0 180 180" fill="none" xmlns="http://www.w3.org/2000/svg">
<path d="M90 -9.38773e-06C139.705 -9.38773e-06 180 40.2933 180 90C180 139.705 139.705 180 90 180C40.2947 180 0 139.705 0 90C0 40.2933 40.2947 -9.38773e-06 90 -9.38773e-06Z" fill="#010201"/>
<path d="M90.0006 33.3327C74.61 33.3327 72.6807 33.398 66.6367 33.674C60.606 33.9486 56.486 34.906 52.882 36.3073C49.1553 37.7553 45.9953 39.6927 42.8447 42.8434C39.694 45.994 37.7567 49.1541 36.3087 52.8807C34.9087 56.4847 33.95 60.6034 33.6753 66.6354C33.3993 72.6808 33.334 74.6087 33.334 89.9994C33.334 105.389 33.3993 107.319 33.6753 113.363C33.95 119.394 34.9087 123.514 36.3087 127.118C37.7567 130.845 39.694 134.005 42.8447 137.154C45.9953 140.305 49.1553 142.242 52.882 143.691C56.486 145.091 60.606 146.05 66.6367 146.325C72.6807 146.601 74.61 146.666 90.0006 146.666C105.39 146.666 107.319 146.601 113.363 146.325C119.395 146.05 123.515 145.091 127.119 143.691C130.846 142.242 134.006 140.305 137.157 137.154C140.306 134.005 142.245 130.845 143.693 127.118C145.093 123.514 146.051 119.394 146.326 113.363C146.602 107.319 146.667 105.389 146.667 89.9994C146.667 74.61 146.602 72.6808 146.326 66.6354C146.051 60.6034 145.093 56.4847 143.693 52.8807C142.245 49.1541 140.306 45.994 137.157 42.8434C134.006 39.6927 130.846 37.7553 127.119 36.3073C123.515 34.906 119.395 33.9486 113.363 33.674C107.319 33.398 105.39 33.3327 90.0006 33.3327ZM90.0006 43.5434C105.131 43.5434 106.923 43.6007 112.899 43.8727C118.423 44.126 121.423 45.0487 123.421 45.8247C126.066 46.8527 127.954 48.0808 129.937 50.0634C131.919 52.0461 133.147 53.934 134.175 56.578C134.951 58.5753 135.874 61.5753 136.127 67.1007C136.399 73.0767 136.457 74.8687 136.457 89.9994C136.457 105.13 136.399 106.922 136.127 112.898C135.874 118.422 134.951 121.423 134.175 123.419C133.147 126.065 131.919 127.953 129.937 129.935C127.954 131.918 126.066 133.146 123.421 134.174C121.423 134.95 118.423 135.874 112.899 136.125C106.923 136.398 105.133 136.455 90.0006 136.455C74.8686 136.455 73.0766 136.398 67.102 136.125C61.578 135.874 58.5767 134.95 56.5807 134.174C53.9353 133.146 52.0473 131.918 50.0646 129.935C48.082 127.953 46.854 126.065 45.826 123.419C45.05 121.423 44.1273 118.422 43.874 112.898C43.602 106.922 43.5447 105.13 43.5447 89.9994C43.5447 74.8687 43.602 73.0767 43.874 67.1007C44.1273 61.5753 45.05 58.5753 45.826 56.578C46.854 53.934 48.0806 52.0461 50.0646 50.0634C52.0473 48.0808 53.9353 46.8527 56.5807 45.8247C58.5767 45.0487 61.578 44.126 67.102 43.8727C73.078 43.6007 74.87 43.5434 90.0006 43.5434Z" fill="white"/>
<path d="M90.0001 108.89C79.5681 108.89 71.1107 100.433 71.1107 90.0009C71.1107 79.5689 79.5681 71.1116 90.0001 71.1116C100.432 71.1116 108.889 79.5689 108.889 90.0009C108.889 100.433 100.432 108.89 90.0001 108.89ZM90.0001 60.9022C73.9294 60.9022 60.9014 73.9302 60.9014 90.0009C60.9014 106.072 73.9294 119.1 90.0001 119.1C106.071 119.1 119.099 106.072 119.099 90.0009C119.099 73.9302 106.071 60.9022 90.0001 60.9022Z" fill="white"/>
<path d="M127.048 59.7508C127.048 63.5068 124.004 66.5508 120.249 66.5508C116.493 66.5508 113.449 63.5068 113.449 59.7508C113.449 55.9948 116.493 52.9508 120.249 52.9508C124.004 52.9508 127.048 55.9948 127.048 59.7508Z" fill="white"/>
</svg>
