<svg width="180" height="180" viewBox="0 0 180 180" fill="none" xmlns="http://www.w3.org/2000/svg">
<path d="M180 90C180 139.705 139.705 180 90.0001 180C40.2947 180 0 139.705 0 90C0 40.2947 40.2947 -9.38773e-06 90.0001 -9.38773e-06C139.705 -9.38773e-06 180 40.2947 180 90Z" fill="#010201"/>
<path d="M96.964 77.7209C98.4413 76.0609 99.66 74.3743 101.179 72.9436C105.845 68.545 111.367 66.325 117.812 66.3796C121.355 66.409 124.857 66.665 128.272 67.653C136.084 69.9116 140.624 75.2889 142.788 82.9196C144.412 88.6423 144.711 94.5183 144.721 100.412C144.743 112.845 144.685 125.277 144.712 137.71C144.715 138.874 144.389 139.18 143.243 139.169C136.839 139.117 130.432 139.116 124.028 139.172C122.901 139.181 122.657 138.832 122.661 137.768C122.697 125.937 122.705 114.108 122.668 102.277C122.657 99.313 122.469 96.3503 121.637 93.4676C120.105 88.1583 116.305 85.453 110.743 85.7463C103.147 86.1476 99.1974 89.9089 98.2294 97.6316C97.9974 99.4769 97.8881 101.322 97.8894 103.181C97.9001 114.686 97.8773 126.192 97.92 137.696C97.924 138.844 97.6373 139.182 96.4653 139.172C90.0146 139.114 83.5613 139.121 77.1107 139.166C76.0773 139.174 75.7774 138.896 75.7787 137.849C75.808 115.072 75.808 92.2929 75.7773 69.5143C75.776 68.3876 76.1453 68.1263 77.2107 68.1343C83.3373 68.1796 89.4654 68.185 95.5907 68.1303C96.7187 68.121 97.0094 68.485 96.9841 69.553C96.9214 72.2743 96.964 74.9983 96.964 77.7209Z" fill="#FEFEFE"/>
<path d="M61.8703 103.753C61.8703 115.021 61.8516 126.29 61.8969 137.559C61.9023 138.811 61.5903 139.19 60.2943 139.175C53.8929 139.105 47.4889 139.122 41.0863 139.166C40.0609 139.174 39.7516 138.917 39.7529 137.857C39.7836 115.041 39.7809 92.2247 39.7583 69.4087C39.7569 68.4647 39.9863 68.1287 40.9889 68.134C47.4836 68.1767 53.9796 68.1887 60.4743 68.1274C61.7223 68.1141 61.893 68.5994 61.8903 69.6687C61.8596 81.0301 61.8703 92.3914 61.8703 103.753Z" fill="#FEFEFE"/>
<path d="M63.637 45.5239C63.6423 52.5986 57.8997 58.3626 50.8423 58.3652C43.873 58.3679 38.0823 52.5985 38.0596 45.6332C38.0356 38.5919 43.8237 32.7932 50.8677 32.7999C57.8637 32.8065 63.629 38.5519 63.637 45.5239Z" fill="#FEFEFE"/>
</svg>
