<svg width="2048" height="2048" viewBox="0 0 2048 2048" fill="none" xmlns="http://www.w3.org/2000/svg">
<path d="M1063.53 364.544L1028.79 616.29C1208.61 606.707 1353.02 733.341 1338.98 924.777C1324.45 1123.74 1139.44 1304.95 932.217 1315.35L927.578 1348.67C927.578 1348.67 1746.2 1564.77 1735.99 930.352C1735.99 930.352 1795.77 363.748 1109.26 363.748C1094.36 363.748 1079.14 364.01 1063.53 364.544Z" fill="#006600"/>
<path d="M339.71 959.146C339.71 959.146 121.131 1588.82 883.966 1684.25L934.851 1315.79C930.361 1316.1 925.976 1316.41 921.486 1316.46C716.376 1319.4 593.179 1153.01 631.682 962.734C668.66 779.998 838.516 633.164 1019.6 617.471C1023.57 617.112 1027.5 616.981 1031.37 616.727L1034.41 594.89C1034.41 594.89 968.091 580.414 875.835 580.414C696.143 580.414 418.054 635.255 339.71 959.146Z" fill="#CCCCCC"/>
<path d="M981 788L1019.84 907.54H1145.53L1043.85 981.42L1082.69 1100.96L981 1027.08L879.313 1100.96L918.154 981.42L816.467 907.54H942.159L981 788Z" fill="#006600"/>
</svg>
