<svg width="3418" height="695" viewBox="0 0 3418 695" fill="none" xmlns="http://www.w3.org/2000/svg">
<g clip-path="url(#clip0_1822_142)">
<path d="M395.156 0.419567L376.926 133.11C471.314 128.059 547.115 194.805 539.746 295.707C532.119 400.577 435.007 496.089 326.236 501.571L323.801 519.133C323.801 519.133 753.496 633.035 748.137 298.646C748.137 298.646 779.516 0 419.16 0C411.344 0 403.355 0.138106 395.156 0.419567Z" fill="#006600"/>
<path d="M15.2268 312.819C15.2268 312.819 -99.5058 644.708 300.906 695.007L327.618 500.799C325.261 500.962 322.957 501.126 320.6 501.152C212.942 502.702 148.274 415.001 168.483 314.711C187.894 218.394 277.049 141.001 372.103 132.729C374.187 132.54 376.25 132.471 378.281 132.337L379.877 120.827C379.877 120.827 345.066 113.197 296.638 113.197C202.318 113.197 56.3498 142.103 15.2268 312.819Z" fill="#CCCCCC"/>
<path d="M351.843 222.613L372.23 285.62H438.205L384.828 324.561L405.22 387.568L351.843 348.628L298.465 387.568L318.853 324.561L265.48 285.62H331.455L351.843 222.613Z" fill="#006600"/>
<path d="M872.263 173.941H904.119V132.26H872.263V173.941ZM873.228 443.413C873.228 464.254 881.915 472.977 902.67 472.977H936.936V444.383H916.664C909.909 444.383 906.045 440.989 906.045 433.72V258.756C906.045 237.916 897.358 229.192 876.604 229.192H842.338V257.787H862.61C869.365 257.787 873.228 261.664 873.228 268.45V443.413ZM946.095 346.478C946.095 419.663 989.053 471.522 1054.21 471.522C1091.86 471.522 1115.99 456.016 1130.47 429.356H1131.44C1131.44 429.356 1130.96 437.594 1130.96 446.808V468.128C1130.96 522.412 1093.31 544.707 1046.01 544.707C1010.29 544.707 980.366 527.746 980.366 527.746L967.816 555.37C991.468 567.488 1019.46 574.756 1046.97 574.756C1106.82 574.756 1163.78 544.707 1163.78 467.163V268.45C1163.78 261.18 1167.64 257.787 1174.4 257.787H1194.19V229.192H1160.4C1140.61 229.192 1132.89 238.401 1132.89 255.849C1132.89 260.695 1132.89 265.057 1132.89 265.057H1131.92C1131.92 265.057 1116.47 223.376 1051.32 223.376C986.156 223.376 946.095 273.296 946.095 346.478ZM1059.04 441.958C1011.26 441.958 979.883 404.156 979.883 345.998C979.883 287.837 1007.39 253.426 1054.69 253.426C1097.65 253.426 1131.44 275.235 1131.44 346.478C1131.44 418.208 1097.65 441.958 1059.04 441.958ZM1201.47 350.842C1201.47 426.452 1242.01 478.791 1307.18 478.791C1370.88 478.791 1390.68 430.326 1390.68 430.326H1391.64C1391.64 430.326 1390.68 436.63 1390.68 445.838C1390.68 463.769 1399.36 472.977 1419.64 472.977H1453.42V444.383H1433.15C1426.39 444.383 1422.53 440.989 1422.53 433.72V161.824C1422.53 140.983 1413.84 132.26 1393.09 132.26H1358.82V160.855H1379.09C1385.85 160.855 1389.71 164.732 1389.71 171.517V250.517C1389.71 260.695 1390.68 268.934 1390.68 268.934H1389.71C1389.71 268.934 1369.44 223.376 1310.55 223.376C1246.84 223.376 1201.47 273.781 1201.47 350.842ZM1312 449.227C1266.63 449.227 1235.26 410.94 1235.26 350.842C1235.26 289.29 1270.49 252.941 1313.45 252.941C1365.58 252.941 1390.68 301.407 1390.68 350.842C1390.68 420.148 1352.54 449.227 1312 449.227ZM1460.13 406.581C1460.13 455.046 1502.11 478.791 1542.66 478.791C1603.47 478.791 1623.74 425.967 1623.26 425.967H1624.23C1624.23 425.967 1623.74 433.235 1623.74 443.898C1623.74 463.769 1631.95 472.977 1652.71 472.977H1686.01V444.383H1665.74C1658.98 444.383 1655.12 440.989 1655.12 433.72V316.916C1655.12 264.573 1636.78 223.376 1560.04 223.376C1538.8 223.376 1480.88 230.646 1480.88 264.573V287.836H1512.25V272.327C1512.25 254.395 1547.49 251.002 1559.55 251.002C1603.96 251.002 1622.3 268.934 1622.3 319.824V322.732H1608.78C1566.79 322.732 1460.13 325.64 1460.13 406.581ZM1493.91 404.641C1493.91 349.872 1570.17 348.902 1608.3 348.902H1622.3V360.05C1622.3 402.217 1594.3 450.682 1547.97 450.682C1511.77 450.682 1493.91 427.416 1493.91 404.641Z" fill="#444444"/>
<path d="M1821.52 569.907H1854.34V454.076C1854.34 441.474 1853.37 432.75 1853.37 432.75H1854.34C1854.34 432.75 1874.61 478.791 1933.98 478.791C1996.72 478.791 2042.58 428.386 2042.58 351.327C2042.58 275.72 2002.04 223.376 1936.87 223.376C1872.68 223.376 1853.37 271.358 1853.37 271.358H1852.41C1852.41 271.358 1852.89 264.573 1852.89 254.879C1852.89 237.916 1844.69 229.192 1823.93 229.192H1790.63V257.787H1810.9C1817.66 257.787 1821.52 261.664 1821.52 268.45V569.907ZM1853.37 351.812C1853.37 282.505 1891.51 253.426 1932.05 253.426C1977.42 253.426 2008.79 291.714 2008.79 351.327C2008.79 413.364 1973.55 449.712 1930.6 449.712C1879.92 449.712 1853.37 400.762 1853.37 351.812ZM2055.62 406.581C2055.62 455.046 2097.61 478.791 2138.16 478.791C2198.97 478.791 2219.25 425.967 2218.76 425.967H2219.73C2219.73 425.967 2219.25 433.235 2219.25 443.898C2219.25 463.769 2227.45 472.977 2248.2 472.977H2281.51V444.383H2261.24C2254.48 444.383 2250.62 440.989 2250.62 433.72V316.916C2250.62 264.573 2232.28 223.376 2155.53 223.376C2134.3 223.376 2076.38 230.646 2076.38 264.573V287.836H2107.75V272.327C2107.75 254.395 2142.99 251.002 2155.05 251.002C2199.46 251.002 2217.8 268.934 2217.8 319.824V322.732H2204.28C2162.29 322.732 2055.62 325.64 2055.62 406.581ZM2089.41 404.641C2089.41 349.872 2165.67 348.902 2203.8 348.902H2217.8V360.05C2217.8 402.217 2189.8 450.682 2143.47 450.682C2107.27 450.682 2089.41 427.416 2089.41 404.641ZM2308.2 472.977H2341.02V350.842H2363.22C2371.91 350.842 2383.49 351.812 2388.8 361.505L2437.07 448.742C2448.17 469.098 2454.93 472.977 2479.06 472.977H2501.74V444.383H2488.71C2475.68 444.383 2470.85 441.958 2466.51 433.72L2422.59 354.721C2414.87 340.179 2407.63 336.785 2407.63 336.785V335.82C2407.63 335.82 2413.9 333.395 2425.97 318.37L2495.95 229.192H2455.89L2393.63 310.615C2386.87 319.34 2375.29 322.247 2366.12 322.247H2341.02V160.37C2341.02 139.53 2332.33 132.26 2311.58 132.26H2277.31V160.855H2297.58C2304.34 160.855 2308.2 164.732 2308.2 171.517V472.977ZM2527.35 173.941H2559.2V132.26H2527.35V173.941ZM2528.31 443.413C2528.31 464.254 2537 472.977 2557.75 472.977H2592.03V444.383H2571.75C2564.99 444.383 2561.13 440.989 2561.13 433.72V258.756C2561.13 237.916 2552.45 229.192 2531.69 229.192H2497.42V257.787H2517.69C2524.45 257.787 2528.31 261.664 2528.31 268.45V443.413ZM2594.91 436.145C2594.91 436.145 2624.83 478.791 2688.06 478.791C2736.33 478.791 2773.01 451.167 2773.01 410.455C2773.01 329.517 2636.9 342.119 2636.9 287.352C2636.9 263.603 2657.17 251.971 2690.96 251.971C2706.88 251.971 2732.95 258.756 2732.95 276.689V288.321H2763.84V267.481C2763.84 233.07 2714.61 223.376 2689.99 223.376C2641.25 223.376 2603.59 245.186 2603.59 289.29C2603.59 367.804 2739.71 358.111 2739.71 411.425C2739.71 437.115 2715.57 450.197 2688.54 450.197C2640.76 450.197 2613.73 413.364 2613.73 413.364L2594.91 436.145ZM2814.24 384.285C2814.24 465.709 2870.71 474.917 2898.71 474.917C2906.91 474.917 2912.7 473.947 2912.7 473.947V444.383C2912.7 444.383 2908.36 445.353 2901.6 445.353C2883.26 445.353 2847.07 438.079 2847.07 380.891V256.818H2907.88V229.192H2847.07V161.824H2814.73V229.192H2782.39V256.818H2814.24V384.285ZM2922.9 406.581C2922.9 455.046 2964.9 478.791 3005.44 478.791C3066.25 478.791 3086.53 425.967 3086.04 425.967H3087.01C3087.01 425.967 3086.53 433.235 3086.53 443.898C3086.53 463.769 3094.73 472.977 3115.48 472.977H3148.78V444.383H3128.51C3121.76 444.383 3117.89 440.989 3117.89 433.72V316.916C3117.89 264.573 3099.55 223.376 3022.81 223.376C3001.58 223.376 2943.66 230.646 2943.66 264.573V287.836H2975.03V272.327C2975.03 254.395 3010.26 251.002 3022.33 251.002C3066.74 251.002 3085.08 268.934 3085.08 319.824V322.732H3071.56C3029.57 322.732 2922.9 325.64 2922.9 406.581ZM2956.69 404.641C2956.69 349.872 3032.95 348.902 3071.08 348.902H3085.08V360.05C3085.08 402.217 3057.08 450.682 3010.75 450.682C2974.55 450.682 2956.69 427.416 2956.69 404.641ZM3176.92 472.977H3209.75V356.176C3209.75 344.544 3210.71 333.395 3213.6 323.217C3224.71 282.989 3260.43 254.395 3301.93 254.395C3348.75 254.395 3354.54 288.321 3354.54 326.609V443.413C3354.54 464.254 3363.23 472.977 3383.98 472.977H3418.25V444.383H3397.98C3391.23 444.383 3387.36 440.989 3387.36 433.72V317.885C3387.36 257.787 3366.13 223.376 3305.79 223.376C3248.84 223.376 3217.95 262.634 3209.26 284.928H3208.3C3208.3 284.928 3209.26 277.174 3209.26 267.481V256.333C3209.26 237.916 3200.09 229.192 3179.82 229.192H3146.03V257.787H3166.31C3173.06 257.787 3176.92 261.664 3176.92 268.45V472.977Z" fill="#006600"/>
</g>
<defs>
<clipPath id="clip0_1822_142">
<rect width="3418" height="695" fill="white"/>
</clipPath>
</defs>
</svg>
