<svg width="3643" height="847" viewBox="0 0 3643 847" fill="none" xmlns="http://www.w3.org/2000/svg">
<rect width="3643" height="847" rx="196" fill="black"/>
<path d="M507.156 75.4196L488.926 208.11C583.314 203.059 659.115 269.805 651.746 370.707C644.119 475.577 547.007 571.089 438.236 576.571L435.801 594.133C435.801 594.133 865.496 708.035 860.137 373.646C860.137 373.646 891.516 75 531.16 75C523.344 75 515.355 75.1381 507.156 75.4196Z" fill="#006600"/>
<path d="M127.227 388.819C127.227 388.819 12.4942 720.708 412.906 771.007L439.618 576.799C437.261 576.962 434.957 577.126 432.6 577.152C324.942 578.702 260.274 491.001 280.483 390.711C299.894 294.394 389.049 217.001 484.103 208.729C486.187 208.54 488.25 208.471 490.281 208.337L491.877 196.827C491.877 196.827 457.066 189.197 408.638 189.197C314.318 189.197 168.35 218.103 127.227 388.819Z" fill="#CCCCCC"/>
<path d="M463.843 298.613L484.23 361.62H550.205L496.828 400.561L517.22 463.568L463.843 424.628L410.465 463.568L430.853 400.561L377.48 361.62H443.455L463.843 298.613Z" fill="#006600"/>
<path d="M984.261 249.941H1016.12V208.26H984.261V249.941ZM985.226 519.413C985.226 540.254 993.914 548.977 1014.67 548.977H1048.93V520.383H1028.66C1021.91 520.383 1018.04 516.989 1018.04 509.72V334.756C1018.04 313.916 1009.36 305.192 988.602 305.192H954.336V333.787H974.608C981.363 333.787 985.226 337.664 985.226 344.45V519.413ZM1058.09 422.478C1058.09 495.663 1101.05 547.522 1166.21 547.522C1203.86 547.522 1227.99 532.016 1242.47 505.356H1243.44C1243.44 505.356 1242.95 513.594 1242.95 522.808V544.128C1242.95 598.412 1205.31 620.707 1158 620.707C1122.29 620.707 1092.36 603.746 1092.36 603.746L1079.81 631.37C1103.47 643.488 1131.46 650.756 1158.97 650.756C1218.82 650.756 1275.78 620.707 1275.78 543.163V344.45C1275.78 337.18 1279.63 333.787 1286.39 333.787H1306.18V305.192H1272.4C1252.61 305.192 1244.89 314.401 1244.89 331.849C1244.89 336.695 1244.89 341.057 1244.89 341.057H1243.92C1243.92 341.057 1228.47 299.376 1163.32 299.376C1098.15 299.376 1058.09 349.296 1058.09 422.478ZM1171.04 517.958C1123.25 517.958 1091.88 480.156 1091.88 421.998C1091.88 363.837 1119.39 329.426 1166.69 329.426C1209.65 329.426 1243.44 351.235 1243.44 422.478C1243.44 494.208 1209.65 517.958 1171.04 517.958ZM1313.47 426.842C1313.47 502.452 1354.01 554.791 1419.17 554.791C1482.88 554.791 1502.68 506.326 1502.68 506.326H1503.64C1503.64 506.326 1502.68 512.63 1502.68 521.838C1502.68 539.769 1511.36 548.977 1531.63 548.977H1565.42V520.383H1545.15C1538.39 520.383 1534.53 516.989 1534.53 509.72V237.824C1534.53 216.983 1525.84 208.26 1505.08 208.26H1470.82V236.855H1491.09C1497.85 236.855 1501.71 240.732 1501.71 247.517V326.517C1501.71 336.695 1502.68 344.934 1502.68 344.934H1501.71C1501.71 344.934 1481.44 299.376 1422.55 299.376C1358.84 299.376 1313.47 349.781 1313.47 426.842ZM1424 525.227C1378.63 525.227 1347.26 486.94 1347.26 426.842C1347.26 365.29 1382.49 328.941 1425.45 328.941C1477.57 328.941 1502.68 377.407 1502.68 426.842C1502.68 496.148 1464.54 525.227 1424 525.227ZM1572.13 482.581C1572.13 531.046 1614.11 554.791 1654.66 554.791C1715.47 554.791 1735.74 501.967 1735.26 501.967H1736.23C1736.23 501.967 1735.74 509.235 1735.74 519.898C1735.74 539.769 1743.95 548.977 1764.71 548.977H1798.01V520.383H1777.73C1770.98 520.383 1767.12 516.989 1767.12 509.72V392.916C1767.12 340.573 1748.78 299.376 1672.03 299.376C1650.8 299.376 1592.88 306.646 1592.88 340.573V363.836H1624.25V348.327C1624.25 330.395 1659.48 327.002 1671.55 327.002C1715.95 327.002 1734.3 344.934 1734.3 395.824V398.732H1720.78C1678.79 398.732 1572.13 401.64 1572.13 482.581ZM1605.91 480.641C1605.91 425.872 1682.17 424.902 1720.3 424.902H1734.3V436.05C1734.3 478.217 1706.3 526.682 1659.97 526.682C1623.76 526.682 1605.91 503.416 1605.91 480.641Z" fill="#444444"/>
<path d="M1933.52 645.907H1966.34V530.076C1966.34 517.474 1965.37 508.75 1965.37 508.75H1966.34C1966.34 508.75 1986.61 554.791 2045.98 554.791C2108.73 554.791 2154.58 504.386 2154.58 427.327C2154.58 351.72 2114.04 299.376 2048.88 299.376C1984.68 299.376 1965.37 347.358 1965.37 347.358H1964.41C1964.41 347.358 1964.89 340.573 1964.89 330.879C1964.89 313.916 1956.69 305.192 1935.93 305.192H1902.63V333.787H1922.9C1929.66 333.787 1933.52 337.664 1933.52 344.45V645.907ZM1965.37 427.812C1965.37 358.505 2003.51 329.426 2044.05 329.426C2089.42 329.426 2120.79 367.714 2120.79 427.327C2120.79 489.364 2085.56 525.712 2042.6 525.712C1991.92 525.712 1965.37 476.762 1965.37 427.812ZM2167.62 482.581C2167.62 531.046 2209.62 554.791 2250.16 554.791C2310.98 554.791 2331.25 501.967 2330.76 501.967H2331.73C2331.73 501.967 2331.25 509.235 2331.25 519.898C2331.25 539.769 2339.45 548.977 2360.21 548.977H2393.51V520.383H2373.24C2366.48 520.383 2362.62 516.989 2362.62 509.72V392.916C2362.62 340.573 2344.28 299.376 2267.53 299.376C2246.3 299.376 2188.38 306.646 2188.38 340.573V363.836H2219.75V348.327C2219.75 330.395 2254.99 327.002 2267.05 327.002C2311.46 327.002 2329.8 344.934 2329.8 395.824V398.732H2316.28C2274.3 398.732 2167.62 401.64 2167.62 482.581ZM2201.41 480.641C2201.41 425.872 2277.67 424.902 2315.8 424.902H2329.8V436.05C2329.8 478.217 2301.81 526.682 2255.47 526.682C2219.27 526.682 2201.41 503.416 2201.41 480.641ZM2420.2 548.977H2453.02V426.842H2475.22C2483.91 426.842 2495.49 427.812 2500.81 437.505L2549.07 524.742C2560.17 545.098 2566.93 548.977 2591.06 548.977H2613.74V520.383H2600.72C2587.68 520.383 2582.85 517.958 2578.51 509.72L2534.59 430.721C2526.87 416.179 2519.63 412.785 2519.63 412.785V411.82C2519.63 411.82 2525.9 409.395 2537.97 394.37L2607.95 305.192H2567.89L2505.63 386.615C2498.87 395.34 2487.29 398.247 2478.12 398.247H2453.02V236.37C2453.02 215.53 2444.33 208.26 2423.58 208.26H2389.31V236.855H2409.58C2416.34 236.855 2420.2 240.732 2420.2 247.517V548.977ZM2639.35 249.941H2671.21V208.26H2639.35V249.941ZM2640.31 519.413C2640.31 540.254 2649 548.977 2669.76 548.977H2704.03V520.383H2683.76C2677 520.383 2673.14 516.989 2673.14 509.72V334.756C2673.14 313.916 2664.45 305.192 2643.7 305.192H2609.42V333.787H2629.7C2636.45 333.787 2640.31 337.664 2640.31 344.45V519.413ZM2706.91 512.145C2706.91 512.145 2736.83 554.791 2800.06 554.791C2848.33 554.791 2885.01 527.167 2885.01 486.455C2885.01 405.517 2748.9 418.119 2748.9 363.352C2748.9 339.603 2769.17 327.971 2802.96 327.971C2818.89 327.971 2844.95 334.756 2844.95 352.689V364.321H2875.84V343.481C2875.84 309.07 2826.61 299.376 2802 299.376C2753.25 299.376 2715.6 321.186 2715.6 365.29C2715.6 443.804 2851.71 434.111 2851.71 487.425C2851.71 513.115 2827.57 526.197 2800.55 526.197C2752.76 526.197 2725.73 489.364 2725.73 489.364L2706.91 512.145ZM2926.24 460.285C2926.24 541.709 2982.71 550.917 3010.71 550.917C3018.92 550.917 3024.71 549.947 3024.71 549.947V520.383C3024.71 520.383 3020.37 521.353 3013.6 521.353C2995.26 521.353 2959.07 514.079 2959.07 456.891V332.818H3019.88V305.192H2959.07V237.824H2926.73V305.192H2894.39V332.818H2926.24V460.285ZM3034.91 482.581C3034.91 531.046 3076.9 554.791 3117.44 554.791C3178.26 554.791 3198.53 501.967 3198.04 501.967H3199.01C3199.01 501.967 3198.53 509.235 3198.53 519.898C3198.53 539.769 3206.73 548.977 3227.49 548.977H3260.79V520.383H3240.51C3233.76 520.383 3229.9 516.989 3229.9 509.72V392.916C3229.9 340.573 3211.56 299.376 3134.81 299.376C3113.58 299.376 3055.66 306.646 3055.66 340.573V363.836H3087.03V348.327C3087.03 330.395 3122.26 327.002 3134.33 327.002C3178.74 327.002 3197.08 344.934 3197.08 395.824V398.732H3183.56C3141.57 398.732 3034.91 401.64 3034.91 482.581ZM3068.69 480.641C3068.69 425.872 3144.95 424.902 3183.08 424.902H3197.08V436.05C3197.08 478.217 3169.08 526.682 3122.75 526.682C3086.55 526.682 3068.69 503.416 3068.69 480.641ZM3288.93 548.977H3321.75V432.176C3321.75 420.544 3322.71 409.395 3325.61 399.217C3336.71 358.989 3372.43 330.395 3413.94 330.395C3460.75 330.395 3466.54 364.321 3466.54 402.609V519.413C3466.54 540.254 3475.23 548.977 3495.98 548.977H3530.26V520.383H3509.98C3503.23 520.383 3499.36 516.989 3499.36 509.72V393.885C3499.36 333.787 3478.13 299.376 3417.79 299.376C3360.84 299.376 3329.95 338.634 3321.27 360.928H3320.3C3320.3 360.928 3321.27 353.174 3321.27 343.481V332.333C3321.27 313.916 3312.1 305.192 3291.82 305.192H3258.04V333.787H3278.31C3285.06 333.787 3288.93 337.664 3288.93 344.45V548.977Z" fill="#006600"/>
</svg>
