<svg width="4300" height="1080" viewBox="0 0 4300 1080" fill="none" xmlns="http://www.w3.org/2000/svg">
<path d="M829.776 192.146L811.546 324.836C905.934 319.785 981.735 386.532 974.366 487.434C966.739 592.303 869.627 687.816 760.856 693.297L758.421 710.86C758.421 710.86 1188.12 824.762 1182.76 490.372C1182.76 490.372 1214.14 191.727 853.78 191.727C845.964 191.727 837.975 191.865 829.776 192.146Z" fill="#006600"/>
<path d="M449.846 505.546C449.846 505.546 335.113 837.434 735.525 887.734L762.237 693.526C759.88 693.689 757.576 693.852 755.219 693.879C647.562 695.428 582.894 607.727 603.102 507.437C622.513 411.121 711.668 333.727 806.722 325.456C808.806 325.267 810.869 325.198 812.901 325.064L814.496 313.554C814.496 313.554 779.685 305.924 731.257 305.924C636.937 305.924 490.969 334.829 449.846 505.546Z" fill="#CCCCCC"/>
<path d="M786.462 415.34L806.849 478.347H872.824L819.447 517.288L839.839 580.295L786.462 541.354L733.084 580.295L753.472 517.288L700.1 478.347H766.075L786.462 415.34Z" fill="#006600"/>
<path d="M1306.88 366.667H1338.74V324.986H1306.88V366.667ZM1307.85 636.14C1307.85 656.981 1316.53 665.704 1337.29 665.704H1371.55V637.11H1351.28C1344.53 637.11 1340.66 633.715 1340.66 626.447V451.483C1340.66 430.643 1331.98 421.918 1311.22 421.918H1276.96V450.514H1297.23C1303.98 450.514 1307.85 454.391 1307.85 461.176V636.14ZM1380.71 539.204C1380.71 612.39 1423.67 664.249 1488.83 664.249C1526.48 664.249 1550.61 648.742 1565.09 622.083H1566.06C1566.06 622.083 1565.57 630.321 1565.57 639.534V660.855C1565.57 715.139 1527.93 737.434 1480.62 737.434C1444.91 737.434 1414.99 720.473 1414.99 720.473L1402.43 748.097C1426.09 760.214 1454.08 767.483 1481.59 767.483C1541.44 767.483 1598.4 737.434 1598.4 659.89V461.176C1598.4 453.906 1602.25 450.514 1609.02 450.514H1628.8V421.918H1595.02C1575.23 421.918 1567.51 431.127 1567.51 448.575C1567.51 453.422 1567.51 457.784 1567.51 457.784H1566.54C1566.54 457.784 1551.09 416.103 1485.94 416.103C1420.77 416.103 1380.71 466.023 1380.71 539.204ZM1493.66 634.685C1445.88 634.685 1414.5 596.883 1414.5 538.725C1414.5 480.563 1442.01 446.152 1489.31 446.152C1532.27 446.152 1566.06 467.962 1566.06 539.204C1566.06 610.935 1532.27 634.685 1493.66 634.685ZM1636.09 543.569C1636.09 619.178 1676.63 671.517 1741.79 671.517C1805.5 671.517 1825.3 623.052 1825.3 623.052H1826.26C1826.26 623.052 1825.3 629.356 1825.3 638.564C1825.3 656.496 1833.98 665.704 1854.26 665.704H1888.04V637.11H1867.77C1861.01 637.11 1857.15 633.715 1857.15 626.447V354.551C1857.15 333.71 1848.46 324.986 1827.71 324.986H1793.44V353.581H1813.71C1820.47 353.581 1824.33 357.459 1824.33 364.244V443.244C1824.33 453.422 1825.3 461.661 1825.3 461.661H1824.33C1824.33 461.661 1804.06 416.103 1745.17 416.103C1681.46 416.103 1636.09 466.507 1636.09 543.569ZM1746.62 641.953C1701.25 641.953 1669.88 603.666 1669.88 543.569C1669.88 482.017 1705.11 445.667 1748.07 445.667C1800.2 445.667 1825.3 494.133 1825.3 543.569C1825.3 612.874 1787.16 641.953 1746.62 641.953ZM1894.75 599.307C1894.75 647.772 1936.73 671.517 1977.28 671.517C2038.09 671.517 2058.36 618.693 2057.88 618.693H2058.85C2058.85 618.693 2058.36 625.962 2058.36 636.625C2058.36 656.496 2066.57 665.704 2087.33 665.704H2120.63V637.11H2100.36C2093.6 637.11 2089.74 633.715 2089.74 626.447V509.643C2089.74 457.299 2071.4 416.103 1994.66 416.103C1973.42 416.103 1915.5 423.373 1915.5 457.299V480.563H1946.87V465.054C1946.87 447.121 1982.11 443.729 1994.17 443.729C2038.57 443.729 2056.92 461.661 2056.92 512.551V515.458H2043.4C2001.41 515.458 1894.75 518.366 1894.75 599.307ZM1928.53 597.368C1928.53 542.599 2004.79 541.629 2042.92 541.629H2056.92V552.777C2056.92 594.943 2028.92 643.408 1982.59 643.408C1946.39 643.408 1928.53 620.143 1928.53 597.368Z" fill="#444444"/>
<path d="M2256.14 762.634H2288.96V646.803C2288.96 634.2 2287.99 625.477 2287.99 625.477H2288.96C2288.96 625.477 2309.23 671.517 2368.6 671.517C2431.34 671.517 2477.2 621.113 2477.2 544.054C2477.2 468.447 2436.65 416.103 2371.49 416.103C2307.3 416.103 2287.99 464.084 2287.99 464.084H2287.03C2287.03 464.084 2287.51 457.299 2287.51 447.606C2287.51 430.643 2279.3 421.919 2258.55 421.919H2225.25V450.514H2245.52C2252.28 450.514 2256.14 454.391 2256.14 461.177V762.634ZM2287.99 544.538C2287.99 475.232 2326.13 446.152 2366.67 446.152C2412.04 446.152 2443.41 484.44 2443.41 544.054C2443.41 606.091 2408.17 642.438 2365.22 642.438C2314.54 642.438 2287.99 593.488 2287.99 544.538ZM2490.24 599.307C2490.24 647.772 2532.23 671.517 2572.78 671.517C2633.59 671.517 2653.86 618.693 2653.38 618.693H2654.35C2654.35 618.693 2653.86 625.962 2653.86 636.625C2653.86 656.496 2662.07 665.704 2682.82 665.704H2716.13V637.11H2695.86C2689.1 637.11 2685.24 633.715 2685.24 626.447V509.643C2685.24 457.299 2666.9 416.103 2590.15 416.103C2568.91 416.103 2511 423.373 2511 457.299V480.563H2542.37V465.054C2542.37 447.121 2577.61 443.729 2589.67 443.729C2634.08 443.729 2652.42 461.661 2652.42 512.551V515.458H2638.9C2596.91 515.458 2490.24 518.366 2490.24 599.307ZM2524.03 597.368C2524.03 542.599 2600.29 541.629 2638.42 541.629H2652.42V552.777C2652.42 594.943 2624.42 643.408 2578.09 643.408C2541.89 643.408 2524.03 620.143 2524.03 597.368ZM2742.81 665.704H2775.64V543.569H2797.84C2806.53 543.569 2818.11 544.538 2823.42 554.232L2871.69 641.469C2882.79 661.824 2889.55 665.704 2913.68 665.704H2936.36V637.11H2923.33C2910.3 637.11 2905.47 634.685 2901.13 626.447L2857.21 547.448C2849.48 532.906 2842.25 529.511 2842.25 529.511V528.547C2842.25 528.547 2848.52 526.121 2860.59 511.097L2930.57 421.919H2890.51L2828.25 503.342C2821.49 512.066 2809.91 514.974 2800.74 514.974H2775.64V353.097C2775.64 332.256 2766.95 324.986 2746.19 324.986H2711.93V353.581H2732.2C2738.96 353.581 2742.81 357.459 2742.81 364.244V665.704ZM2961.97 366.667H2993.82V324.986H2961.97V366.667ZM2962.93 636.14C2962.93 656.981 2971.62 665.704 2992.37 665.704H3026.64V637.11H3006.37C2999.61 637.11 2995.75 633.715 2995.75 626.447V451.483C2995.75 430.643 2987.07 421.919 2966.31 421.919H2932.04V450.514H2952.31C2959.07 450.514 2962.93 454.391 2962.93 461.177V636.14ZM3029.53 628.871C3029.53 628.871 3059.45 671.517 3122.68 671.517C3170.95 671.517 3207.63 643.893 3207.63 603.181C3207.63 522.244 3071.52 534.845 3071.52 480.078C3071.52 456.33 3091.79 444.698 3125.58 444.698C3141.5 444.698 3167.57 451.483 3167.57 469.416V481.047H3198.46V460.207C3198.46 425.796 3149.23 416.103 3124.61 416.103C3075.86 416.103 3038.21 437.913 3038.21 482.017C3038.21 560.53 3174.33 550.837 3174.33 604.151C3174.33 629.841 3150.19 642.923 3123.16 642.923C3075.38 642.923 3048.35 606.091 3048.35 606.091L3029.53 628.871ZM3248.86 577.012C3248.86 658.435 3305.33 667.643 3333.33 667.643C3341.53 667.643 3347.32 666.674 3347.32 666.674V637.11C3347.32 637.11 3342.98 638.079 3336.22 638.079C3317.88 638.079 3281.68 630.806 3281.68 573.618V449.544H3342.5V421.919H3281.68V354.551H3249.34V421.919H3217.01V449.544H3248.86V577.012ZM3357.52 599.307C3357.52 647.772 3399.51 671.517 3440.06 671.517C3500.87 671.517 3521.14 618.693 3520.66 618.693H3521.63C3521.63 618.693 3521.14 625.962 3521.14 636.625C3521.14 656.496 3529.35 665.704 3550.1 665.704H3583.4V637.11H3563.13C3556.38 637.11 3552.51 633.715 3552.51 626.447V509.643C3552.51 457.299 3534.17 416.103 3457.43 416.103C3436.19 416.103 3378.28 423.373 3378.28 457.299V480.563H3409.65V465.054C3409.65 447.121 3444.88 443.729 3456.95 443.729C3501.36 443.729 3519.7 461.661 3519.7 512.551V515.458H3506.18C3464.19 515.458 3357.52 518.366 3357.52 599.307ZM3391.3 597.368C3391.3 542.599 3467.57 541.629 3505.7 541.629H3519.7V552.777C3519.7 594.943 3491.7 643.408 3445.36 643.408C3409.17 643.408 3391.3 620.143 3391.3 597.368ZM3611.54 665.704H3644.37V548.903C3644.37 537.27 3645.33 526.121 3648.22 515.943C3659.33 475.716 3695.04 447.121 3736.55 447.121C3783.37 447.121 3789.16 481.047 3789.16 519.336V636.14C3789.16 656.981 3797.85 665.704 3818.6 665.704H3852.87V637.11H3832.6C3825.85 637.11 3821.98 633.715 3821.98 626.447V510.612C3821.98 450.514 3800.74 416.103 3740.41 416.103C3683.46 416.103 3652.57 455.36 3643.88 477.655H3642.92C3642.92 477.655 3643.88 469.9 3643.88 460.207V449.06C3643.88 430.643 3634.71 421.919 3614.44 421.919H3580.65V450.514H3600.92C3607.68 450.514 3611.54 454.391 3611.54 461.177V665.704Z" fill="#006600"/>
</svg>
