<svg width="2048" height="2048" viewBox="0 0 2048 2048" fill="none" xmlns="http://www.w3.org/2000/svg">
<path d="M1045.85 184.039L1018.77 381.578C1158.95 374.058 1271.54 473.425 1260.59 623.639C1249.27 779.76 1105.03 921.954 943.48 930.112L939.863 956.257C939.863 956.257 1578.06 1125.83 1570.1 628.014C1570.1 628.014 1616.7 183.414 1081.5 183.414C1069.88 183.414 1058.02 183.62 1045.85 184.039Z" fill="#006600"/>
<path d="M481.564 650.61C481.564 650.61 311.161 1144.7 905.864 1219.58L945.534 930.458C942.034 930.704 938.615 930.946 935.115 930.986C775.212 933.293 679.168 802.727 709.185 653.426C738.012 510.038 870.432 394.82 1011.6 382.507C1014.7 382.225 1017.76 382.122 1020.78 381.923L1023.15 364.788C1023.15 364.788 971.448 353.43 899.526 353.43C759.438 353.43 542.641 396.462 481.564 650.61Z" fill="#CCCCCC"/>
<path d="M981.513 516.316L1011.79 610.116H1109.78L1030.51 668.087L1060.79 761.887L981.513 703.916L902.238 761.887L932.518 668.087L853.244 610.116H951.233L981.513 516.316Z" fill="#006600"/>
<path d="M94.4382 1374.97H141.751V1313.32H94.4382V1374.97ZM95.872 1773.54C95.872 1804.37 108.775 1817.27 139.6 1817.27H190.497V1774.98H160.389C150.353 1774.98 144.618 1769.96 144.618 1759.21V1500.42C144.618 1469.6 131.715 1456.69 100.89 1456.69H49.9932V1498.99H80.1011C90.1371 1498.99 95.872 1504.72 95.872 1514.76V1773.54ZM204.1 1630.17C204.1 1738.42 267.901 1815.12 364.676 1815.12C420.591 1815.12 456.434 1792.18 477.939 1752.75H479.373C479.373 1752.75 478.656 1764.94 478.656 1778.56V1810.1C478.656 1890.39 422.742 1923.37 352.49 1923.37C299.442 1923.37 254.997 1898.28 254.997 1898.28L236.359 1939.14C271.485 1957.06 313.063 1967.81 353.923 1967.81C442.813 1967.81 527.403 1923.37 527.403 1808.67V1514.76C527.403 1504 533.137 1498.99 543.173 1498.99H572.564V1456.69H522.385C492.993 1456.69 481.524 1470.31 481.524 1496.12C481.524 1503.29 481.524 1509.74 481.524 1509.74H480.09C480.09 1509.74 457.151 1448.09 360.375 1448.09C263.599 1448.09 204.1 1521.93 204.1 1630.17ZM371.845 1771.39C300.876 1771.39 254.28 1715.48 254.28 1629.45C254.28 1543.43 295.141 1492.53 365.393 1492.53C429.193 1492.53 479.373 1524.79 479.373 1630.17C479.373 1736.27 429.193 1771.39 371.845 1771.39ZM583.39 1636.62C583.39 1748.45 643.606 1825.87 740.382 1825.87C835.007 1825.87 864.398 1754.19 864.398 1754.19H865.831C865.831 1754.19 864.398 1763.51 864.398 1777.13C864.398 1803.65 877.301 1817.27 907.409 1817.27H957.589V1774.98H927.481C917.445 1774.98 911.71 1769.96 911.71 1759.21V1357.05C911.71 1326.22 898.807 1313.32 867.982 1313.32H817.085V1355.62H847.193C857.229 1355.62 862.964 1361.35 862.964 1371.39V1488.23C862.964 1503.29 864.398 1515.47 864.398 1515.47H862.964C862.964 1515.47 832.856 1448.09 745.4 1448.09C650.775 1448.09 583.39 1522.64 583.39 1636.62ZM747.55 1782.14C680.166 1782.14 633.57 1725.51 633.57 1636.62C633.57 1545.58 685.9 1491.82 749.701 1491.82C827.121 1491.82 864.398 1563.5 864.398 1636.62C864.398 1739.13 807.766 1782.14 747.55 1782.14ZM967.546 1719.06C967.546 1790.75 1029.91 1825.87 1090.13 1825.87C1180.45 1825.87 1210.56 1747.74 1209.84 1747.74H1211.28C1211.28 1747.74 1210.56 1758.49 1210.56 1774.26C1210.56 1803.65 1222.75 1817.27 1253.57 1817.27H1303.04V1774.98H1272.93C1262.89 1774.98 1257.16 1769.96 1257.16 1759.21V1586.44C1257.16 1509.02 1229.92 1448.09 1115.94 1448.09C1084.39 1448.09 998.371 1458.84 998.371 1509.02V1543.43H1044.97V1520.49C1044.97 1493.97 1097.3 1488.95 1115.22 1488.95C1181.17 1488.95 1208.41 1515.47 1208.41 1590.74V1595.05H1188.34C1125.97 1595.05 967.546 1599.35 967.546 1719.06ZM1017.73 1716.19C1017.73 1635.19 1130.99 1633.76 1187.62 1633.76H1208.41V1650.24C1208.41 1712.61 1166.83 1784.3 1098.01 1784.3C1044.25 1784.3 1017.73 1749.89 1017.73 1716.19Z" fill="#444444"/>
<path d="M1344.83 1960.64H1393.57V1789.31C1393.57 1770.67 1392.14 1757.77 1392.14 1757.77H1393.57C1393.57 1757.77 1423.68 1825.87 1511.85 1825.87C1605.04 1825.87 1673.15 1751.32 1673.15 1637.34C1673.15 1525.51 1612.93 1448.09 1516.15 1448.09C1420.81 1448.09 1392.14 1519.06 1392.14 1519.06H1390.7C1390.7 1519.06 1391.42 1509.02 1391.42 1494.69C1391.42 1469.6 1379.23 1456.69 1348.41 1456.69H1298.95V1498.99H1329.05C1339.09 1498.99 1344.83 1504.72 1344.83 1514.76V1960.64ZM1392.14 1638.06C1392.14 1535.55 1448.77 1492.53 1508.99 1492.53C1576.37 1492.53 1622.97 1549.17 1622.97 1637.34C1622.97 1729.1 1570.64 1782.86 1506.83 1782.86C1431.57 1782.86 1392.14 1710.46 1392.14 1638.06ZM1721.26 1817.27H1770.01V1636.62H1802.99C1815.89 1636.62 1833.09 1638.06 1840.98 1652.39L1912.67 1781.43C1929.15 1811.54 1939.19 1817.27 1975.03 1817.27H2008.72V1774.98H1989.37C1970.01 1774.98 1962.84 1771.39 1956.39 1759.21L1891.16 1642.36C1879.69 1620.85 1868.94 1615.83 1868.94 1615.83V1614.4C1868.94 1614.4 1878.26 1610.82 1896.18 1588.59L2000.12 1456.69H1940.62L1848.15 1577.12C1838.11 1590.03 1820.91 1594.33 1807.29 1594.33H1770.01V1354.9C1770.01 1324.07 1757.11 1313.32 1726.28 1313.32H1675.39V1355.62H1705.49C1715.53 1355.62 1721.26 1361.35 1721.26 1371.39V1817.27Z" fill="#006600"/>
</svg>
