<svg width="3856" height="992" viewBox="0 0 3856 992" fill="none" xmlns="http://www.w3.org/2000/svg">
<rect width="3856" height="992" rx="196" fill="white"/>
<path d="M614.156 148.42L595.926 281.11C690.314 276.059 766.115 342.805 758.746 443.707C751.119 548.577 654.007 644.089 545.236 649.571L542.801 667.133C542.801 667.133 972.496 781.035 967.137 446.646C967.137 446.646 998.516 148 638.16 148C630.344 148 622.355 148.138 614.156 148.42Z" fill="#006600"/>
<path d="M234.227 461.819C234.227 461.819 119.494 793.708 519.906 844.007L546.618 649.799C544.261 649.962 541.957 650.126 539.6 650.152C431.942 651.702 367.274 564.001 387.483 463.711C406.894 367.394 496.049 290.001 591.103 281.729C593.187 281.54 595.25 281.471 597.281 281.337L598.877 269.827C598.877 269.827 564.066 262.197 515.638 262.197C421.318 262.197 275.35 291.103 234.227 461.819Z" fill="#CCCCCC"/>
<path d="M570.843 371.613L591.23 434.62H657.205L603.828 473.561L624.22 536.568L570.843 497.628L517.465 536.568L537.853 473.561L484.48 434.62H550.455L570.843 371.613Z" fill="#006600"/>
<path d="M1091.26 322.941H1123.12V281.26H1091.26V322.941ZM1092.23 592.413C1092.23 613.254 1100.92 621.977 1121.67 621.977H1155.94V593.383H1135.66C1128.91 593.383 1125.05 589.989 1125.05 582.72V407.756C1125.05 386.916 1116.36 378.192 1095.6 378.192H1061.34V406.787H1081.61C1088.37 406.787 1092.23 410.664 1092.23 417.45V592.413ZM1165.1 495.478C1165.1 568.663 1208.05 620.522 1273.21 620.522C1310.86 620.522 1334.99 605.016 1349.47 578.356H1350.44C1350.44 578.356 1349.96 586.594 1349.96 595.808V617.128C1349.96 671.412 1312.31 693.707 1265.01 693.707C1229.29 693.707 1199.37 676.746 1199.37 676.746L1186.82 704.37C1210.47 716.488 1238.46 723.756 1265.97 723.756C1325.82 723.756 1382.78 693.707 1382.78 616.163V417.45C1382.78 410.18 1386.64 406.787 1393.4 406.787H1413.19V378.192H1379.4C1359.61 378.192 1351.89 387.401 1351.89 404.849C1351.89 409.695 1351.89 414.057 1351.89 414.057H1350.92C1350.92 414.057 1335.47 372.376 1270.32 372.376C1205.16 372.376 1165.1 422.296 1165.1 495.478ZM1278.04 590.958C1230.26 590.958 1198.88 553.156 1198.88 494.998C1198.88 436.837 1226.39 402.426 1273.69 402.426C1316.65 402.426 1350.44 424.235 1350.44 495.478C1350.44 567.208 1316.65 590.958 1278.04 590.958ZM1420.47 499.842C1420.47 575.452 1461.01 627.791 1526.18 627.791C1589.88 627.791 1609.68 579.326 1609.68 579.326H1610.64C1610.64 579.326 1609.68 585.63 1609.68 594.838C1609.68 612.769 1618.36 621.977 1638.64 621.977H1672.42V593.383H1652.15C1645.39 593.383 1641.53 589.989 1641.53 582.72V310.824C1641.53 289.983 1632.84 281.26 1612.09 281.26H1577.82V309.855H1598.09C1604.85 309.855 1608.71 313.732 1608.71 320.517V399.517C1608.71 409.695 1609.68 417.934 1609.68 417.934H1608.71C1608.71 417.934 1588.44 372.376 1529.55 372.376C1465.84 372.376 1420.47 422.781 1420.47 499.842ZM1531 598.227C1485.63 598.227 1454.26 559.94 1454.26 499.842C1454.26 438.29 1489.49 401.941 1532.45 401.941C1584.58 401.941 1609.68 450.407 1609.68 499.842C1609.68 569.148 1571.54 598.227 1531 598.227ZM1679.13 555.581C1679.13 604.046 1721.11 627.791 1761.66 627.791C1822.47 627.791 1842.74 574.967 1842.26 574.967H1843.23C1843.23 574.967 1842.74 582.235 1842.74 592.898C1842.74 612.769 1850.95 621.977 1871.71 621.977H1905.01V593.383H1884.74C1877.98 593.383 1874.12 589.989 1874.12 582.72V465.916C1874.12 413.573 1855.78 372.376 1779.04 372.376C1757.8 372.376 1699.88 379.646 1699.88 413.573V436.836H1731.25V421.327C1731.25 403.395 1766.49 400.002 1778.55 400.002C1822.96 400.002 1841.3 417.934 1841.3 468.824V471.732H1827.78C1785.79 471.732 1679.13 474.64 1679.13 555.581ZM1712.91 553.641C1712.91 498.872 1789.17 497.902 1827.3 497.902H1841.3V509.05C1841.3 551.217 1813.3 599.682 1766.97 599.682C1730.77 599.682 1712.91 576.416 1712.91 553.641Z" fill="#444444"/>
<path d="M2040.52 718.907H2073.34V603.076C2073.34 590.474 2072.37 581.75 2072.37 581.75H2073.34C2073.34 581.75 2093.61 627.791 2152.98 627.791C2215.72 627.791 2261.58 577.386 2261.58 500.327C2261.58 424.72 2221.04 372.376 2155.87 372.376C2091.68 372.376 2072.37 420.358 2072.37 420.358H2071.41C2071.41 420.358 2071.89 413.573 2071.89 403.879C2071.89 386.916 2063.69 378.192 2042.93 378.192H2009.63V406.787H2029.9C2036.66 406.787 2040.52 410.664 2040.52 417.45V718.907ZM2072.37 500.812C2072.37 431.505 2110.51 402.426 2151.05 402.426C2196.42 402.426 2227.79 440.714 2227.79 500.327C2227.79 562.364 2192.55 598.712 2149.6 598.712C2098.92 598.712 2072.37 549.762 2072.37 500.812ZM2274.62 555.581C2274.62 604.046 2316.61 627.791 2357.16 627.791C2417.97 627.791 2438.25 574.967 2437.76 574.967H2438.73C2438.73 574.967 2438.25 582.235 2438.25 592.898C2438.25 612.769 2446.45 621.977 2467.2 621.977H2500.51V593.383H2480.24C2473.48 593.383 2469.62 589.989 2469.62 582.72V465.916C2469.62 413.573 2451.28 372.376 2374.53 372.376C2353.3 372.376 2295.38 379.646 2295.38 413.573V436.836H2326.75V421.327C2326.75 403.395 2361.99 400.002 2374.05 400.002C2418.46 400.002 2436.8 417.934 2436.8 468.824V471.732H2423.28C2381.29 471.732 2274.62 474.64 2274.62 555.581ZM2308.41 553.641C2308.41 498.872 2384.67 497.902 2422.8 497.902H2436.8V509.05C2436.8 551.217 2408.8 599.682 2362.47 599.682C2326.27 599.682 2308.41 576.416 2308.41 553.641ZM2527.2 621.977H2560.02V499.842H2582.22C2590.91 499.842 2602.49 500.812 2607.8 510.505L2656.07 597.742C2667.17 618.098 2673.93 621.977 2698.06 621.977H2720.74V593.383H2707.71C2694.68 593.383 2689.85 590.958 2685.51 582.72L2641.59 503.721C2633.87 489.179 2626.63 485.785 2626.63 485.785V484.82C2626.63 484.82 2632.9 482.395 2644.97 467.37L2714.95 378.192H2674.89L2612.63 459.615C2605.87 468.34 2594.29 471.247 2585.12 471.247H2560.02V309.37C2560.02 288.53 2551.33 281.26 2530.58 281.26H2496.31V309.855H2516.58C2523.34 309.855 2527.2 313.732 2527.2 320.517V621.977ZM2746.35 322.941H2778.2V281.26H2746.35V322.941ZM2747.31 592.413C2747.31 613.254 2756 621.977 2776.75 621.977H2811.03V593.383H2790.75C2783.99 593.383 2780.13 589.989 2780.13 582.72V407.756C2780.13 386.916 2771.45 378.192 2750.69 378.192H2716.42V406.787H2736.69C2743.45 406.787 2747.31 410.664 2747.31 417.45V592.413ZM2813.91 585.145C2813.91 585.145 2843.83 627.791 2907.06 627.791C2955.33 627.791 2992.01 600.167 2992.01 559.455C2992.01 478.517 2855.9 491.119 2855.9 436.352C2855.9 412.603 2876.17 400.971 2909.96 400.971C2925.88 400.971 2951.95 407.756 2951.95 425.689V437.321H2982.84V416.481C2982.84 382.07 2933.61 372.376 2908.99 372.376C2860.25 372.376 2822.59 394.186 2822.59 438.29C2822.59 516.804 2958.71 507.111 2958.71 560.425C2958.71 586.115 2934.57 599.197 2907.54 599.197C2859.76 599.197 2832.73 562.364 2832.73 562.364L2813.91 585.145ZM3033.24 533.285C3033.24 614.709 3089.71 623.917 3117.71 623.917C3125.91 623.917 3131.7 622.947 3131.7 622.947V593.383C3131.7 593.383 3127.36 594.353 3120.6 594.353C3102.26 594.353 3066.07 587.079 3066.07 529.891V405.818H3126.88V378.192H3066.07V310.824H3033.73V378.192H3001.39V405.818H3033.24V533.285ZM3141.9 555.581C3141.9 604.046 3183.9 627.791 3224.44 627.791C3285.25 627.791 3305.53 574.967 3305.04 574.967H3306.01C3306.01 574.967 3305.53 582.235 3305.53 592.898C3305.53 612.769 3313.73 621.977 3334.48 621.977H3367.78V593.383H3347.51C3340.76 593.383 3336.89 589.989 3336.89 582.72V465.916C3336.89 413.573 3318.55 372.376 3241.81 372.376C3220.58 372.376 3162.66 379.646 3162.66 413.573V436.836H3194.03V421.327C3194.03 403.395 3229.26 400.002 3241.33 400.002C3285.74 400.002 3304.08 417.934 3304.08 468.824V471.732H3290.56C3248.57 471.732 3141.9 474.64 3141.9 555.581ZM3175.69 553.641C3175.69 498.872 3251.95 497.902 3290.08 497.902H3304.08V509.05C3304.08 551.217 3276.08 599.682 3229.75 599.682C3193.55 599.682 3175.69 576.416 3175.69 553.641ZM3395.92 621.977H3428.75V505.176C3428.75 493.544 3429.71 482.395 3432.6 472.217C3443.71 431.989 3479.43 403.395 3520.93 403.395C3567.75 403.395 3573.54 437.321 3573.54 475.609V592.413C3573.54 613.254 3582.23 621.977 3602.98 621.977H3637.25V593.383H3616.98C3610.23 593.383 3606.36 589.989 3606.36 582.72V466.885C3606.36 406.787 3585.13 372.376 3524.79 372.376C3467.84 372.376 3436.95 411.634 3428.26 433.928H3427.3C3427.3 433.928 3428.26 426.174 3428.26 416.481V405.333C3428.26 386.916 3419.09 378.192 3398.82 378.192H3365.03V406.787H3385.31C3392.06 406.787 3395.92 410.664 3395.92 417.45V621.977Z" fill="#006600"/>
</svg>
