<svg width="1080" height="1080" viewBox="0 0 1080 1080" fill="none" xmlns="http://www.w3.org/2000/svg">
<g clip-path="url(#clip0_1819_120)">
<path d="M649.086 213.12L690.18 313.846C754.365 272.052 834.672 288.288 870.477 362.253C907.718 439.11 878.354 545.646 804.246 593.572L809.67 606.913C809.67 606.913 1157.48 512.935 1017.92 279.885C1017.92 279.885 918.647 57.0953 665.761 203.099C660.27 206.269 654.722 209.602 649.086 213.12Z" fill="#FFFF88"/>
<circle cx="679.232" cy="96.3474" r="80.6696" transform="rotate(-30 679.232 96.3474)" fill="#FFFF88"/>
<path d="M281.726 477.812L382.452 436.719C340.657 372.534 356.894 292.227 430.858 256.422C507.715 219.18 614.252 248.544 662.178 322.652L675.518 317.229C675.518 317.229 581.54 -30.5838 348.491 108.982C348.491 108.982 125.701 208.252 271.705 461.138C274.875 466.628 278.208 472.176 281.726 477.812Z" fill="#EEEEEE"/>
<circle cx="154.89" cy="422.452" r="80.6696" transform="rotate(-120 154.89 422.452)" fill="#EEEEEE"/>
<path d="M430.455 867.06L389.361 766.333C325.176 808.128 244.869 791.891 209.064 717.927C171.823 641.07 201.187 534.533 275.295 486.607L269.871 473.267C269.871 473.267 -77.9413 567.245 61.6249 800.295C61.6249 800.295 160.894 1023.08 413.78 877.08C419.271 873.91 424.819 870.578 430.455 867.06Z" fill="#FFFF88"/>
<circle cx="395.276" cy="983.809" r="80.6696" transform="rotate(150 395.276 983.809)" fill="#FFFF88"/>
<path d="M797.81 602.348L697.083 643.442C738.878 707.626 722.641 787.934 648.677 823.738C571.82 860.98 465.283 831.616 417.357 757.508L404.017 762.931C404.017 762.931 497.995 1110.74 731.045 971.178C731.045 971.178 953.834 871.909 807.83 619.022C804.66 613.532 801.328 607.984 797.81 602.348Z" fill="#EEEEEE"/>
<circle cx="929.698" cy="662.728" r="80.6696" transform="rotate(60 929.698 662.728)" fill="#EEEEEE"/>
<path fill-rule="evenodd" clip-rule="evenodd" d="M504.865 361.006C543.421 324.004 603.513 323.31 642.869 358.053C661.519 372.062 767.166 451.608 781.268 466.303C797.038 482.735 797.785 507.598 782.939 521.844C776.847 527.691 769.062 530.697 760.924 531.238L613.523 537.265L538.331 609.425L526.247 756.453C525.372 764.562 522.048 772.217 515.956 778.064C501.11 792.31 476.299 790.542 460.529 774.109C447.129 760.146 378.618 661.179 360.482 634.885C324.56 594.135 326.847 531.931 366.405 493.954L366.39 493.939L503.068 362.773C503.658 362.178 504.257 361.589 504.865 361.006ZM436.323 536.562L416.416 515.819C413.855 513.15 409.618 513.062 406.949 515.623L392.045 529.926C389.377 532.487 389.29 536.724 391.852 539.394L411.758 560.137L435.84 560.644L436.323 536.562ZM445.08 594.877L464.986 615.62C467.548 618.29 471.785 618.377 474.454 615.816L489.357 601.513C492.026 598.952 492.113 594.715 489.551 592.046L469.644 571.303L445.563 570.795L445.08 594.877ZM467.017 516.847L446.279 536.749L445.786 560.84L469.876 561.339L490.615 541.437C493.284 538.875 493.361 534.629 490.809 531.969L476.494 517.053C473.932 514.383 469.686 514.286 467.017 516.847ZM411.545 570.082L390.797 589.994C388.129 592.555 388.051 596.801 390.604 599.461L404.909 614.368C407.471 617.037 411.708 617.125 414.377 614.564L435.115 594.662L435.608 570.571L411.545 570.082ZM561.832 398.969C568.799 406.229 568.17 418.139 560.426 425.57C552.682 433.002 540.757 433.141 533.789 425.881C526.822 418.621 527.452 406.712 535.196 399.28C542.94 391.849 554.865 391.709 561.832 398.969ZM615.648 455.089C622.615 462.349 621.986 474.259 614.242 481.69C606.498 489.122 594.573 489.261 587.606 482.001C580.638 474.742 581.268 462.832 589.012 455.4C596.756 447.969 608.681 447.83 615.648 455.089ZM560.967 482.286C568.71 474.854 568.587 462.16 560.691 453.932C552.795 445.704 540.116 445.059 532.372 452.49C524.629 459.922 524.752 472.616 532.648 480.844C540.544 489.072 553.223 489.717 560.967 482.286ZM616.789 400.116C624.685 408.344 624.809 421.038 617.065 428.47C609.321 435.901 596.643 435.256 588.747 427.028C580.851 418.8 580.727 406.106 588.471 398.674C596.215 391.243 608.893 391.888 616.789 400.116Z" fill="#EEEEEE"/>
</g>
<defs>
<clipPath id="clip0_1819_120">
<rect width="1080" height="1080" fill="white"/>
</clipPath>
</defs>
</svg>
