<svg width="1944" height="600" viewBox="0 0 1944 600" fill="none" xmlns="http://www.w3.org/2000/svg">
<path d="M648.954 276.604C648.954 276.604 686.154 323.804 753.354 323.804C817.754 323.804 854.954 283.004 854.954 235.404C854.954 141.404 725.354 146.204 725.354 111.404C725.354 98.2039 740.154 92.2039 754.554 92.2039C767.754 92.2039 782.554 98.6039 782.554 109.004V121.404H846.554V90.2039C846.554 46.6039 793.354 28.2039 755.354 28.2039C698.554 28.2039 653.354 62.6039 653.354 114.204C653.354 203.804 782.954 207.404 782.954 239.004C782.954 255.004 768.554 260.204 754.154 260.204C718.154 260.204 688.554 226.604 688.554 226.604L648.954 276.604ZM861.051 319.004H907.051C927.051 319.004 935.051 313.004 940.651 295.804L953.051 259.004H1036.25L1048.65 295.804C1054.25 313.004 1062.25 319.004 1082.25 319.004H1128.25V259.004H1120.65C1114.25 259.004 1112.25 257.004 1109.85 250.204L1031.85 33.0039H957.451L879.451 250.204C877.051 257.004 875.051 259.004 868.651 259.004H861.051V319.004ZM968.251 201.004L982.651 153.404C988.251 135.404 994.251 106.204 994.251 106.204H995.051C995.051 106.204 1001.05 135.404 1006.65 153.404L1021.05 201.004H968.251ZM1126.44 319.004H1172.44C1192.44 319.004 1200.44 313.004 1206.04 295.804L1218.44 259.004H1301.64L1314.04 295.804C1319.64 313.004 1327.64 319.004 1347.64 319.004H1393.64V259.004H1386.04C1379.64 259.004 1377.64 257.004 1375.24 250.204L1297.24 33.0039H1222.84L1144.84 250.204C1142.44 257.004 1140.44 259.004 1134.04 259.004H1126.44V319.004ZM1233.64 201.004L1248.04 153.404C1253.64 135.404 1259.64 106.204 1259.64 106.204H1260.44C1260.44 106.204 1266.44 135.404 1272.04 153.404L1286.44 201.004H1233.64ZM1453.85 319.004H1525.45V93.0039H1548.65C1554.25 93.0039 1557.45 96.2039 1557.45 101.804V117.404H1619.45V60.6039C1619.45 40.2039 1612.25 33.0039 1591.85 33.0039H1387.45C1367.05 33.0039 1359.85 40.2039 1359.85 60.6039V117.404H1421.85V101.804C1421.85 96.2039 1425.05 93.0039 1430.65 93.0039H1453.85V319.004ZM1652.53 319.004H1724.13V207.004H1820.93V319.004H1892.53V101.804C1892.53 96.2039 1895.73 93.0039 1901.33 93.0039H1918.53V33.0039H1850.13C1829.73 33.0039 1820.93 41.8039 1820.93 62.2039V147.404H1724.13V62.2039C1724.13 41.8039 1715.33 33.0039 1694.93 33.0039H1626.53V93.0039H1643.73C1649.33 93.0039 1652.53 96.2039 1652.53 101.804V319.004Z" fill="#FFFF88"/>
<path d="M641.602 452.672C641.602 515.633 686.957 561.585 744.248 561.585C788.409 561.585 812.877 533.238 812.877 533.238H813.474C813.474 533.238 813.176 537.713 813.176 542.189V558.004H832.272V478.334C832.272 465.503 826.901 460.132 814.071 460.132H793.183V478.632H806.014C810.192 478.632 812.579 480.721 812.579 485.197V511.157C812.579 511.157 787.812 541.891 746.336 541.891C698.892 541.891 663.384 504.294 663.384 452.672C663.384 402.245 699.489 364.349 746.635 364.349C784.232 364.349 807.506 385.833 807.506 385.833L819.74 370.317C819.74 370.317 794.974 344.656 746.336 344.656C686.957 344.656 641.602 392.398 641.602 452.672ZM855.027 517.125C855.027 546.964 880.987 561.585 906.052 561.585C943.649 561.585 956.181 529.06 955.883 529.06H956.479C956.479 529.06 956.181 533.536 956.181 540.101C956.181 552.335 961.254 558.004 974.084 558.004H994.673V540.399H982.141C977.963 540.399 975.576 538.31 975.576 533.834V461.923C975.576 429.697 964.237 404.333 916.794 404.333C903.664 404.333 867.858 408.809 867.858 429.697V444.019H887.253V434.471C887.253 423.43 909.035 421.342 916.495 421.342C943.947 421.342 955.286 432.382 955.286 463.713V465.503H946.931C920.971 465.503 855.027 467.294 855.027 517.125ZM875.914 515.931C875.914 482.213 923.06 481.616 946.632 481.616H955.286V488.479C955.286 514.439 937.979 544.278 909.334 544.278C886.955 544.278 875.914 529.955 875.914 515.931ZM1019.53 558.004H1039.82V486.987C1039.82 480.124 1040.42 473.261 1042.21 466.995C1048.47 444.019 1066.67 422.834 1091.14 422.834C1119.49 422.834 1122.77 444.914 1122.77 467.592V558.004H1143.06V486.987C1143.06 478.931 1143.66 471.769 1145.75 465.205C1151.71 443.124 1170.51 422.834 1193.19 422.834C1220.64 422.834 1225.72 443.124 1225.72 467.592V539.802C1225.72 552.633 1231.09 558.004 1243.92 558.004H1265.1V540.399H1252.57C1248.39 540.399 1246.01 538.31 1246.01 533.834V462.519C1246.01 425.519 1232.58 404.333 1196.17 404.333C1170.81 404.333 1149.03 421.64 1140.97 441.93H1140.38C1135.9 417.164 1121.58 404.333 1093.83 404.333C1070.55 404.333 1046.98 421.938 1039.52 442.229H1038.92C1038.92 442.229 1039.52 437.455 1039.52 431.487V424.624C1039.52 413.285 1033.85 407.914 1021.32 407.914H1000.43V425.519H1012.96C1017.14 425.519 1019.53 427.906 1019.53 432.084V558.004ZM1275.74 483.108C1275.74 529.359 1309.76 561.585 1354.22 561.585C1388.24 561.585 1410.02 540.101 1410.02 540.101L1400.17 524.883C1400.17 524.883 1382.57 543.383 1355.12 543.383C1324.08 543.383 1297.53 521.6 1296.93 483.705H1412.11C1412.11 483.705 1412.7 477.14 1412.7 473.56C1412.7 436.261 1391.22 404.333 1349.74 404.333C1309.46 404.333 1275.74 433.874 1275.74 483.108ZM1297.83 467.592C1302.9 437.455 1324.68 421.342 1349.45 421.342C1371.53 421.342 1390.62 436.559 1391.82 467.592H1297.83ZM1451.75 539.802C1451.75 552.633 1457.12 558.004 1469.95 558.004H1516.5C1579.76 558.004 1621.83 519.81 1621.83 452.971C1621.83 386.728 1579.76 348.236 1516.5 348.236H1432.35V366.736H1451.75V539.802ZM1472.64 532.939V366.736H1514.41C1565.73 366.736 1600.05 397.172 1600.05 452.971C1600.05 509.068 1566.03 539.504 1514.41 539.504H1479.2C1475.02 539.504 1472.64 537.415 1472.64 532.939ZM1639.06 483.108C1639.06 529.359 1673.07 561.585 1717.53 561.585C1751.55 561.585 1773.33 540.101 1773.33 540.101L1763.48 524.883C1763.48 524.883 1745.88 543.383 1718.43 543.383C1687.4 543.383 1660.84 521.6 1660.24 483.705H1775.42C1775.42 483.705 1776.02 477.14 1776.02 473.56C1776.02 436.261 1754.53 404.333 1713.06 404.333C1672.77 404.333 1639.06 433.874 1639.06 483.108ZM1661.14 467.592C1666.21 437.455 1687.99 421.342 1712.76 421.342C1734.84 421.342 1753.94 436.559 1755.13 467.592H1661.14ZM1849.38 558.004H1871.46L1920.39 432.382C1922.18 427.011 1925.47 425.519 1930.84 425.519H1933.52V407.914H1925.76C1911.74 407.914 1907.26 410.898 1902.19 424.326L1866.09 518.02C1863.4 525.479 1861.01 535.625 1861.01 535.625H1860.42C1860.42 535.625 1858.03 525.479 1855.34 518.02L1819.24 424.326C1814.17 410.898 1809.69 407.914 1795.37 407.914H1787.31V425.519H1790C1795.37 425.519 1798.35 427.011 1800.44 432.382L1849.38 558.004Z" fill="#EEEEEE"/>
<path d="M370.614 122.728L392.844 177.195C427.566 154.595 471.01 163.375 490.379 203.371C510.526 244.931 494.641 302.54 454.551 328.456L457.485 335.669C457.485 335.669 645.641 284.851 570.14 158.831C570.14 158.831 516.438 38.3584 379.634 117.309C376.664 119.023 373.663 120.826 370.614 122.728Z" fill="#FFFF88"/>
<ellipse cx="43.6353" cy="43.6262" rx="43.6353" ry="43.6262" transform="matrix(0.866116 -0.499844 0.500156 0.865935 327.307 43.6211)" fill="#FFFF88"/>
<path d="M171.88 265.863L226.37 243.641C203.76 208.934 212.544 165.508 252.556 146.147C294.133 126.009 351.767 141.887 377.693 181.961L384.91 179.028C384.91 179.028 334.071 -9.05009 207.998 66.4196C207.998 66.4196 87.4749 120.099 166.459 256.846C168.174 259.815 169.977 262.815 171.88 265.863Z" fill="#EEEEEE"/>
<ellipse cx="43.6262" cy="43.6353" rx="43.6262" ry="43.6353" transform="matrix(-0.500156 -0.865935 0.866116 -0.499844 87.293 295.512)" fill="#EEEEEE"/>
<path d="M252.34 476.342L230.109 421.875C195.387 444.475 151.943 435.695 132.574 395.699C112.427 354.14 128.312 296.53 168.402 270.615L165.469 263.401C165.469 263.401 -22.6878 314.219 52.8134 440.24C52.8134 440.24 106.515 560.712 243.319 481.761C246.289 480.047 249.291 478.245 252.34 476.342Z" fill="#FFFF88"/>
<ellipse cx="43.6353" cy="43.6262" rx="43.6353" ry="43.6262" transform="matrix(-0.866116 0.499844 -0.500157 -0.865935 292.922 555.445)" fill="#FFFF88"/>
<path d="M451.068 333.204L396.578 355.425C419.187 390.133 410.404 433.558 370.391 452.92C328.814 473.058 271.181 457.18 245.254 417.106L238.037 420.039C238.037 420.039 288.877 608.117 414.95 532.647C414.95 532.647 535.472 478.967 456.488 342.22C454.774 339.251 452.971 336.252 451.068 333.204Z" fill="#EEEEEE"/>
<ellipse cx="43.6262" cy="43.6353" rx="43.6262" ry="43.6353" transform="matrix(0.500157 0.865935 -0.866116 0.499844 538.389 306.262)" fill="#EEEEEE"/>
<path fill-rule="evenodd" clip-rule="evenodd" d="M292.588 202.691C313.448 182.681 345.959 182.307 367.25 201.098C377.352 208.683 434.487 251.685 442.115 259.63C450.646 268.516 451.05 281.96 443.019 289.664C439.723 292.826 435.512 294.451 431.109 294.744L351.367 298.003L310.694 337.02L304.156 416.528C303.683 420.912 301.884 425.052 298.589 428.213C290.558 435.917 277.136 434.961 268.605 426.075C261.355 418.524 224.292 365.007 214.482 350.789C195.05 328.755 196.287 295.119 217.685 274.583L217.676 274.574L291.653 203.609C291.96 203.3 292.272 202.994 292.588 202.691ZM255.511 297.617L244.742 286.4C243.356 284.957 241.064 284.909 239.62 286.294L231.558 294.028C230.114 295.413 230.067 297.704 231.453 299.148L242.222 310.365L255.249 310.639L255.511 297.617ZM260.248 329.15L271.017 340.367C272.403 341.811 274.695 341.858 276.138 340.473L284.201 332.739C285.644 331.354 285.691 329.063 284.306 327.619L273.537 316.403L260.509 316.128L260.248 329.15ZM272.115 286.956L260.896 297.718L260.63 310.745L273.662 311.015L284.881 300.253C286.325 298.868 286.367 296.571 284.986 295.133L277.242 287.067C275.856 285.624 273.559 285.571 272.115 286.956ZM242.107 315.743L230.883 326.51C229.439 327.895 229.397 330.191 230.778 331.629L238.517 339.69C239.903 341.133 242.195 341.181 243.639 339.796L254.857 329.034L255.124 316.007L242.107 315.743ZM323.407 223.214C327.176 227.14 326.835 233.58 322.646 237.599C318.457 241.617 312.005 241.693 308.236 237.767C304.467 233.841 304.808 227.401 308.997 223.382C313.186 219.364 319.638 219.289 323.407 223.214ZM352.52 253.561C356.289 257.487 355.948 263.927 351.759 267.945C347.57 271.964 341.119 272.039 337.35 268.114C333.581 264.188 333.921 257.748 338.111 253.729C342.3 249.711 348.751 249.635 352.52 253.561ZM322.938 268.267C327.128 264.249 327.061 257.384 322.789 252.935C318.518 248.486 311.659 248.137 307.47 252.156C303.281 256.174 303.348 263.039 307.619 267.488C311.891 271.937 318.749 272.286 322.938 268.267ZM353.139 223.834C357.41 228.283 357.477 235.148 353.288 239.166C349.099 243.185 342.24 242.836 337.969 238.387C333.697 233.938 333.63 227.073 337.82 223.054C342.009 219.036 348.867 219.385 353.139 223.834Z" fill="#EEEEEE"/>
</svg>
