<svg width="1944" height="955" viewBox="0 0 1944 955" fill="none" xmlns="http://www.w3.org/2000/svg">
<rect x="1019" y="750" width="881.438" height="204.935" rx="32.978" fill="#081D1F"/>
<path d="M1277.27 856V778.33H1295.1V809.07H1327.59V778.33H1345.53V856H1327.59V824.713H1295.1V856H1277.27ZM1386.53 799.443C1395.21 799.443 1401.99 801.923 1406.88 806.882C1411.84 811.841 1414.32 818.551 1414.32 827.011C1414.32 832.772 1413.08 837.914 1410.6 842.435C1408.12 846.957 1404.62 850.53 1400.1 853.156C1395.57 855.781 1390.25 857.094 1384.12 857.094C1375.52 857.094 1368.74 854.614 1363.78 849.655C1358.89 844.696 1356.45 838.023 1356.45 829.636C1356.45 823.802 1357.69 818.624 1360.17 814.102C1362.65 809.581 1366.15 806.007 1370.67 803.382C1375.19 800.756 1380.48 799.443 1386.53 799.443ZM1384.89 842.545C1388.61 842.545 1391.56 841.159 1393.75 838.388C1396.01 835.543 1397.14 831.751 1397.14 827.011C1397.14 822.927 1396.16 819.754 1394.19 817.493C1392.22 815.16 1389.52 813.993 1386.09 813.993C1382.3 813.993 1379.28 815.415 1377.01 818.259C1374.83 821.03 1373.73 824.786 1373.73 829.527C1373.73 833.611 1374.68 836.82 1376.58 839.153C1378.55 841.414 1381.32 842.545 1384.89 842.545ZM1424.46 856V800.318H1441.09L1440.43 811.805C1442.76 807.502 1445.68 804.366 1449.18 802.397C1452.68 800.428 1456.4 799.443 1460.34 799.443C1464.21 799.443 1467.67 800.428 1470.73 802.397C1473.8 804.293 1476.13 807.393 1477.73 811.695C1480.21 807.538 1483.35 804.475 1487.14 802.506C1491.01 800.464 1494.91 799.443 1498.85 799.443C1505.41 799.443 1510.33 801.704 1513.61 806.226C1516.9 810.674 1518.5 817.092 1518.43 825.479L1518.21 856H1501.47L1501.69 825.807C1501.69 822.453 1501.07 819.827 1499.83 817.931C1498.59 815.962 1496.7 814.977 1494.14 814.977C1492.17 814.977 1490.31 815.597 1488.56 816.837C1486.89 818.077 1485.39 820.228 1484.08 823.291C1482.77 826.354 1481.71 830.548 1480.91 835.872C1480.18 841.195 1479.74 847.905 1479.59 856H1462.97V825.807C1462.97 822.453 1462.38 819.827 1461.22 817.931C1460.05 815.962 1458.19 814.977 1455.64 814.977C1453.67 814.977 1451.81 815.597 1450.06 816.837C1448.38 818.077 1446.88 820.228 1445.57 823.291C1444.26 826.354 1443.2 830.548 1442.4 835.872C1441.6 841.195 1441.16 847.905 1441.09 856H1424.46ZM1557.79 857.094C1551.59 857.094 1546.23 855.964 1541.7 853.703C1537.18 851.369 1533.68 848.124 1531.2 843.967C1528.72 839.737 1527.48 834.741 1527.48 828.98C1527.48 823.145 1528.72 818.004 1531.2 813.555C1533.75 809.106 1537.15 805.642 1541.38 803.163C1545.68 800.683 1550.53 799.443 1555.93 799.443C1562.05 799.443 1567.05 800.829 1570.91 803.6C1574.78 806.372 1577.44 810.31 1578.9 815.415C1580.43 820.447 1580.76 826.318 1579.88 833.027H1544.55C1544.99 835.799 1546.44 838.132 1548.92 840.028C1551.4 841.852 1554.8 842.763 1559.1 842.763C1561.07 842.763 1563.15 842.362 1565.33 841.56C1567.52 840.685 1569.38 839.409 1570.91 837.731L1580.21 847.577C1577.8 850.494 1574.81 852.828 1571.24 854.578C1567.74 856.255 1563.25 857.094 1557.79 857.094ZM1556.25 811.586C1553.34 811.586 1550.86 812.461 1548.81 814.212C1546.85 815.962 1545.53 818.405 1544.88 821.541H1565.77C1565.84 818.113 1565.01 815.597 1563.25 813.993C1561.58 812.388 1559.24 811.586 1556.25 811.586ZM1650.87 778.33L1648.57 793.974H1625.05V856H1607.11V793.974H1582.49V778.33H1650.87ZM1674.66 857.094C1668.46 857.094 1663.1 855.964 1658.58 853.703C1654.05 851.369 1650.55 848.124 1648.07 843.967C1645.59 839.737 1644.36 834.741 1644.36 828.98C1644.36 823.145 1645.59 818.004 1648.07 813.555C1650.63 809.106 1654.02 805.642 1658.25 803.163C1662.55 800.683 1667.4 799.443 1672.8 799.443C1678.92 799.443 1683.92 800.829 1687.78 803.6C1691.65 806.372 1694.31 810.31 1695.77 815.415C1697.3 820.447 1697.63 826.318 1696.75 833.027H1661.42C1661.86 835.799 1663.32 838.132 1665.8 840.028C1668.28 841.852 1671.67 842.763 1675.97 842.763C1677.94 842.763 1680.02 842.362 1682.21 841.56C1684.39 840.685 1686.25 839.409 1687.78 837.731L1697.08 847.577C1694.68 850.494 1691.69 852.828 1688.11 854.578C1684.61 856.255 1680.13 857.094 1674.66 857.094ZM1673.13 811.586C1670.21 811.586 1667.73 812.461 1665.69 814.212C1663.72 815.962 1662.41 818.405 1661.75 821.541H1682.64C1682.72 818.113 1681.88 815.597 1680.13 813.993C1678.45 812.388 1676.12 811.586 1673.13 811.586ZM1761.72 800.537V856H1744.87L1745.42 847.686C1741.41 853.958 1735.47 857.094 1727.59 857.094C1722.63 857.094 1718.4 855.964 1714.9 853.703C1711.4 851.442 1708.74 848.306 1706.91 844.295C1705.09 840.284 1704.18 835.689 1704.18 830.511C1704.18 824.312 1705.46 818.879 1708.01 814.212C1710.56 809.544 1713.99 805.934 1718.29 803.382C1722.59 800.756 1727.41 799.443 1732.73 799.443C1736.23 799.443 1739.33 800.173 1742.03 801.631C1744.73 803.017 1746.81 804.877 1748.27 807.21L1749.69 800.537H1761.72ZM1734.37 813.993C1730.36 813.993 1727.19 815.488 1724.86 818.478C1722.59 821.468 1721.46 825.297 1721.46 829.964C1721.46 833.975 1722.34 837.075 1724.09 839.263C1725.91 841.451 1728.36 842.545 1731.42 842.545C1735.14 842.545 1738.31 841.013 1740.94 837.95C1743.63 834.887 1744.98 830.876 1744.98 825.917C1744.98 822.197 1744.04 819.28 1742.14 817.165C1740.24 815.05 1737.65 813.993 1734.37 813.993ZM1774.65 856V800.318H1791.28L1790.62 811.805C1792.95 807.502 1795.87 804.366 1799.37 802.397C1802.87 800.428 1806.59 799.443 1810.53 799.443C1814.39 799.443 1817.86 800.428 1820.92 802.397C1823.98 804.293 1826.32 807.393 1827.92 811.695C1830.4 807.538 1833.54 804.475 1837.33 802.506C1841.2 800.464 1845.1 799.443 1849.04 799.443C1855.6 799.443 1860.52 801.704 1863.8 806.226C1867.09 810.674 1868.69 817.092 1868.62 825.479L1868.4 856H1851.66L1851.88 825.807C1851.88 822.453 1851.26 819.827 1850.02 817.931C1848.78 815.962 1846.88 814.977 1844.33 814.977C1842.36 814.977 1840.5 815.597 1838.75 816.837C1837.08 818.077 1835.58 820.228 1834.27 823.291C1832.95 826.354 1831.9 830.548 1831.09 835.872C1830.37 841.195 1829.93 847.905 1829.78 856H1813.15V825.807C1813.15 822.453 1812.57 819.827 1811.4 817.931C1810.24 815.962 1808.38 814.977 1805.82 814.977C1803.86 814.977 1802 815.597 1800.25 816.837C1798.57 818.077 1797.07 820.228 1795.76 823.291C1794.45 826.354 1793.39 830.548 1792.59 835.872C1791.79 841.195 1791.35 847.905 1791.28 856H1774.65Z" fill="#CCD0BF"/>
<path d="M1440.68 911.072H1461.03V937H1452.37L1451.56 932.567C1450.04 934.403 1448.07 935.724 1445.65 936.53C1443.28 937.291 1440.77 937.672 1438.13 937.672C1433.38 937.672 1429.26 936.731 1425.77 934.851C1422.32 932.97 1419.63 930.283 1417.71 926.79C1415.83 923.252 1414.89 919.02 1414.89 914.094C1414.89 909.079 1415.96 904.668 1418.11 900.862C1420.3 897.01 1423.39 894.01 1427.38 891.861C1431.36 889.711 1436.04 888.636 1441.42 888.636C1445.94 888.636 1449.75 889.442 1452.84 891.055C1455.97 892.622 1458.59 895.018 1460.7 898.242L1452.3 904.355C1451.18 902.339 1449.64 900.884 1447.67 899.988C1445.69 899.048 1443.61 898.578 1441.42 898.578C1438.28 898.578 1435.6 899.227 1433.36 900.526C1431.12 901.78 1429.37 903.571 1428.12 905.899C1426.91 908.183 1426.3 910.848 1426.3 913.893C1426.3 918.326 1427.47 921.752 1429.8 924.17C1432.13 926.588 1435.33 927.797 1439.4 927.797C1441.02 927.797 1442.63 927.529 1444.24 926.991C1445.85 926.409 1447.22 925.536 1448.34 924.372C1449.5 923.207 1450.2 921.752 1450.42 920.006H1440.68V911.072ZM1501.58 902.944V937H1491.23L1491.57 931.895C1489.1 935.746 1485.45 937.672 1480.62 937.672C1477.57 937.672 1474.98 936.978 1472.83 935.589C1470.68 934.201 1469.04 932.276 1467.92 929.813C1466.8 927.35 1466.24 924.528 1466.24 921.349C1466.24 917.543 1467.03 914.206 1468.59 911.34C1470.16 908.474 1472.27 906.258 1474.91 904.69C1477.55 903.078 1480.51 902.272 1483.78 902.272C1485.92 902.272 1487.83 902.72 1489.48 903.616C1491.14 904.466 1492.42 905.608 1493.31 907.041L1494.19 902.944H1501.58ZM1484.78 911.206C1482.32 911.206 1480.37 912.124 1478.94 913.96C1477.55 915.796 1476.86 918.147 1476.86 921.013C1476.86 923.476 1477.39 925.379 1478.47 926.723C1479.59 928.066 1481.09 928.738 1482.97 928.738C1485.25 928.738 1487.2 927.797 1488.81 925.917C1490.47 924.036 1491.3 921.573 1491.3 918.528C1491.3 916.244 1490.72 914.453 1489.55 913.154C1488.39 911.855 1486.8 911.206 1484.78 911.206ZM1509.51 937V902.81H1519.72L1519.32 909.863C1520.75 907.221 1522.54 905.295 1524.69 904.086C1526.84 902.877 1529.13 902.272 1531.55 902.272C1533.92 902.272 1536.05 902.877 1537.93 904.086C1539.81 905.25 1541.24 907.153 1542.23 909.795C1543.75 907.243 1545.67 905.362 1548 904.153C1550.38 902.899 1552.77 902.272 1555.19 902.272C1559.22 902.272 1562.24 903.66 1564.26 906.437C1566.27 909.169 1567.26 913.109 1567.21 918.259L1567.08 937H1556.8L1556.94 918.461C1556.94 916.401 1556.56 914.789 1555.79 913.624C1555.03 912.415 1553.87 911.811 1552.3 911.811C1551.09 911.811 1549.95 912.191 1548.88 912.953C1547.85 913.714 1546.93 915.035 1546.12 916.916C1545.32 918.796 1544.67 921.371 1544.17 924.64C1543.73 927.909 1543.46 932.029 1543.37 937H1533.16V918.461C1533.16 916.401 1532.8 914.789 1532.08 913.624C1531.37 912.415 1530.22 911.811 1528.66 911.811C1527.45 911.811 1526.31 912.191 1525.23 912.953C1524.2 913.714 1523.28 915.035 1522.48 916.916C1521.67 918.796 1521.02 921.371 1520.53 924.64C1520.04 927.909 1519.77 932.029 1519.72 937H1509.51ZM1591.38 937.672C1587.57 937.672 1584.28 936.978 1581.51 935.589C1578.73 934.156 1576.58 932.164 1575.06 929.611C1573.53 927.014 1572.77 923.946 1572.77 920.409C1572.77 916.826 1573.53 913.669 1575.06 910.937C1576.62 908.206 1578.71 906.079 1581.3 904.556C1583.95 903.034 1586.92 902.272 1590.24 902.272C1594 902.272 1597.07 903.123 1599.44 904.825C1601.81 906.526 1603.45 908.945 1604.34 912.079C1605.28 915.169 1605.49 918.774 1604.95 922.894H1583.25C1583.52 924.596 1584.42 926.029 1585.94 927.193C1587.46 928.312 1589.54 928.872 1592.19 928.872C1593.4 928.872 1594.67 928.626 1596.01 928.133C1597.36 927.596 1598.5 926.812 1599.44 925.782L1605.15 931.828C1603.67 933.619 1601.84 935.052 1599.64 936.127C1597.49 937.157 1594.74 937.672 1591.38 937.672ZM1590.44 909.728C1588.65 909.728 1587.13 910.266 1585.87 911.34C1584.66 912.415 1583.86 913.915 1583.45 915.841H1596.28C1596.33 913.736 1595.81 912.191 1594.74 911.206C1593.71 910.221 1592.28 909.728 1590.44 909.728ZM1611.79 937V889.308H1627.24C1636.65 889.308 1643.74 891.301 1648.53 895.286C1653.33 899.272 1655.72 905.183 1655.72 913.02C1655.72 917.766 1654.65 921.931 1652.5 925.514C1650.35 929.096 1647.35 931.917 1643.5 933.977C1639.65 935.992 1635.19 937 1630.13 937H1611.79ZM1622.74 927.26H1629.66C1634.54 927.26 1638.24 926.096 1640.74 923.767C1643.3 921.394 1644.57 917.923 1644.57 913.356C1644.57 908.519 1643.25 904.937 1640.61 902.608C1638.01 900.235 1634 899.048 1628.58 899.048H1622.74V927.26ZM1678.95 937.672C1675.15 937.672 1671.85 936.978 1669.08 935.589C1666.3 934.156 1664.15 932.164 1662.63 929.611C1661.11 927.014 1660.35 923.946 1660.35 920.409C1660.35 916.826 1661.11 913.669 1662.63 910.937C1664.2 908.206 1666.28 906.079 1668.88 904.556C1671.52 903.034 1674.5 902.272 1677.81 902.272C1681.57 902.272 1684.64 903.123 1687.01 904.825C1689.39 906.526 1691.02 908.945 1691.92 912.079C1692.86 915.169 1693.06 918.774 1692.52 922.894H1670.82C1671.09 924.596 1671.99 926.029 1673.51 927.193C1675.03 928.312 1677.12 928.872 1679.76 928.872C1680.97 928.872 1682.24 928.626 1683.59 928.133C1684.93 927.596 1686.07 926.812 1687.01 925.782L1692.72 931.828C1691.25 933.619 1689.41 935.052 1687.21 936.127C1685.07 937.157 1682.31 937.672 1678.95 937.672ZM1678.01 909.728C1676.22 909.728 1674.7 910.266 1673.44 911.34C1672.24 912.415 1671.43 913.915 1671.03 915.841H1683.86C1683.9 913.736 1683.39 912.191 1682.31 911.206C1681.28 910.221 1679.85 909.728 1678.01 909.728ZM1722.67 902.81H1732.88L1720.32 937H1705.68L1694.93 902.81H1706.08L1713.6 928.536L1722.67 902.81Z" fill="#52B1C2"/>
<path d="M1149.99 828.688L1134.64 813.334H1115.93L1134.64 794.622L1183.1 843.082H1043L1058.83 858.915H1067.47V939.521L1083.3 923.688V858.915H1184.54V923.688L1200.37 939.521V858.915H1220.05L1134.16 773.031L1078.51 828.688H1149.99Z" fill="#4AA6B6"/>
<path d="M648.954 276.604C648.954 276.604 686.154 323.804 753.354 323.804C817.754 323.804 854.954 283.004 854.954 235.404C854.954 141.404 725.354 146.204 725.354 111.404C725.354 98.2039 740.154 92.2039 754.554 92.2039C767.754 92.2039 782.554 98.6039 782.554 109.004V121.404H846.554V90.2039C846.554 46.6039 793.354 28.2039 755.354 28.2039C698.554 28.2039 653.354 62.6039 653.354 114.204C653.354 203.804 782.954 207.404 782.954 239.004C782.954 255.004 768.554 260.204 754.154 260.204C718.154 260.204 688.554 226.604 688.554 226.604L648.954 276.604ZM861.051 319.004H907.051C927.051 319.004 935.051 313.004 940.651 295.804L953.051 259.004H1036.25L1048.65 295.804C1054.25 313.004 1062.25 319.004 1082.25 319.004H1128.25V259.004H1120.65C1114.25 259.004 1112.25 257.004 1109.85 250.204L1031.85 33.0039H957.451L879.451 250.204C877.051 257.004 875.051 259.004 868.651 259.004H861.051V319.004ZM968.251 201.004L982.651 153.404C988.251 135.404 994.251 106.204 994.251 106.204H995.051C995.051 106.204 1001.05 135.404 1006.65 153.404L1021.05 201.004H968.251ZM1126.44 319.004H1172.44C1192.44 319.004 1200.44 313.004 1206.04 295.804L1218.44 259.004H1301.64L1314.04 295.804C1319.64 313.004 1327.64 319.004 1347.64 319.004H1393.64V259.004H1386.04C1379.64 259.004 1377.64 257.004 1375.24 250.204L1297.24 33.0039H1222.84L1144.84 250.204C1142.44 257.004 1140.44 259.004 1134.04 259.004H1126.44V319.004ZM1233.64 201.004L1248.04 153.404C1253.64 135.404 1259.64 106.204 1259.64 106.204H1260.44C1260.44 106.204 1266.44 135.404 1272.04 153.404L1286.44 201.004H1233.64ZM1453.85 319.004H1525.45V93.0039H1548.65C1554.25 93.0039 1557.45 96.2039 1557.45 101.804V117.404H1619.45V60.6039C1619.45 40.2039 1612.25 33.0039 1591.85 33.0039H1387.45C1367.05 33.0039 1359.85 40.2039 1359.85 60.6039V117.404H1421.85V101.804C1421.85 96.2039 1425.05 93.0039 1430.65 93.0039H1453.85V319.004ZM1652.53 319.004H1724.13V207.004H1820.93V319.004H1892.53V101.804C1892.53 96.2039 1895.73 93.0039 1901.33 93.0039H1918.53V33.0039H1850.13C1829.73 33.0039 1820.93 41.8039 1820.93 62.2039V147.404H1724.13V62.2039C1724.13 41.8039 1715.33 33.0039 1694.93 33.0039H1626.53V93.0039H1643.73C1649.33 93.0039 1652.53 96.2039 1652.53 101.804V319.004Z" fill="#FFFF88"/>
<path d="M641.602 452.672C641.602 515.633 686.957 561.585 744.248 561.585C788.409 561.585 812.877 533.238 812.877 533.238H813.474C813.474 533.238 813.176 537.713 813.176 542.189V558.004H832.272V478.334C832.272 465.503 826.901 460.132 814.071 460.132H793.183V478.632H806.014C810.192 478.632 812.579 480.721 812.579 485.197V511.157C812.579 511.157 787.812 541.891 746.336 541.891C698.892 541.891 663.384 504.294 663.384 452.672C663.384 402.245 699.489 364.349 746.635 364.349C784.232 364.349 807.506 385.833 807.506 385.833L819.74 370.317C819.74 370.317 794.974 344.656 746.336 344.656C686.957 344.656 641.602 392.398 641.602 452.672ZM855.027 517.125C855.027 546.964 880.987 561.585 906.052 561.585C943.649 561.585 956.181 529.06 955.883 529.06H956.479C956.479 529.06 956.181 533.536 956.181 540.101C956.181 552.335 961.254 558.004 974.084 558.004H994.673V540.399H982.141C977.963 540.399 975.576 538.31 975.576 533.834V461.923C975.576 429.697 964.237 404.333 916.794 404.333C903.664 404.333 867.858 408.809 867.858 429.697V444.019H887.253V434.471C887.253 423.43 909.035 421.342 916.495 421.342C943.947 421.342 955.286 432.382 955.286 463.713V465.503H946.931C920.971 465.503 855.027 467.294 855.027 517.125ZM875.914 515.931C875.914 482.213 923.06 481.616 946.632 481.616H955.286V488.479C955.286 514.439 937.979 544.278 909.334 544.278C886.955 544.278 875.914 529.955 875.914 515.931ZM1019.53 558.004H1039.82V486.987C1039.82 480.124 1040.42 473.261 1042.21 466.995C1048.47 444.019 1066.67 422.834 1091.14 422.834C1119.49 422.834 1122.77 444.914 1122.77 467.592V558.004H1143.06V486.987C1143.06 478.931 1143.66 471.769 1145.75 465.205C1151.71 443.124 1170.51 422.834 1193.19 422.834C1220.64 422.834 1225.72 443.124 1225.72 467.592V539.802C1225.72 552.633 1231.09 558.004 1243.92 558.004H1265.1V540.399H1252.57C1248.39 540.399 1246.01 538.31 1246.01 533.834V462.519C1246.01 425.519 1232.58 404.333 1196.17 404.333C1170.81 404.333 1149.03 421.64 1140.97 441.93H1140.38C1135.9 417.164 1121.58 404.333 1093.83 404.333C1070.55 404.333 1046.98 421.938 1039.52 442.229H1038.92C1038.92 442.229 1039.52 437.455 1039.52 431.487V424.624C1039.52 413.285 1033.85 407.914 1021.32 407.914H1000.43V425.519H1012.96C1017.14 425.519 1019.53 427.906 1019.53 432.084V558.004ZM1275.74 483.108C1275.74 529.359 1309.76 561.585 1354.22 561.585C1388.24 561.585 1410.02 540.101 1410.02 540.101L1400.17 524.883C1400.17 524.883 1382.57 543.383 1355.12 543.383C1324.08 543.383 1297.53 521.6 1296.93 483.705H1412.11C1412.11 483.705 1412.7 477.14 1412.7 473.56C1412.7 436.261 1391.22 404.333 1349.74 404.333C1309.46 404.333 1275.74 433.874 1275.74 483.108ZM1297.83 467.592C1302.9 437.455 1324.68 421.342 1349.45 421.342C1371.53 421.342 1390.62 436.559 1391.82 467.592H1297.83ZM1451.75 539.802C1451.75 552.633 1457.12 558.004 1469.95 558.004H1516.5C1579.76 558.004 1621.83 519.81 1621.83 452.971C1621.83 386.728 1579.76 348.236 1516.5 348.236H1432.35V366.736H1451.75V539.802ZM1472.64 532.939V366.736H1514.41C1565.73 366.736 1600.05 397.172 1600.05 452.971C1600.05 509.068 1566.03 539.504 1514.41 539.504H1479.2C1475.02 539.504 1472.64 537.415 1472.64 532.939ZM1639.06 483.108C1639.06 529.359 1673.07 561.585 1717.53 561.585C1751.55 561.585 1773.33 540.101 1773.33 540.101L1763.48 524.883C1763.48 524.883 1745.88 543.383 1718.43 543.383C1687.4 543.383 1660.84 521.6 1660.24 483.705H1775.42C1775.42 483.705 1776.02 477.14 1776.02 473.56C1776.02 436.261 1754.53 404.333 1713.06 404.333C1672.77 404.333 1639.06 433.874 1639.06 483.108ZM1661.14 467.592C1666.21 437.455 1687.99 421.342 1712.76 421.342C1734.84 421.342 1753.94 436.559 1755.13 467.592H1661.14ZM1849.38 558.004H1871.46L1920.39 432.382C1922.18 427.011 1925.47 425.519 1930.84 425.519H1933.52V407.914H1925.76C1911.74 407.914 1907.26 410.898 1902.19 424.326L1866.09 518.02C1863.4 525.479 1861.01 535.625 1861.01 535.625H1860.42C1860.42 535.625 1858.03 525.479 1855.34 518.02L1819.24 424.326C1814.17 410.898 1809.69 407.914 1795.37 407.914H1787.31V425.519H1790C1795.37 425.519 1798.35 427.011 1800.44 432.382L1849.38 558.004Z" fill="#EEEEEE"/>
<path d="M370.614 122.728L392.844 177.195C427.566 154.595 471.01 163.375 490.379 203.371C510.526 244.931 494.641 302.54 454.551 328.456L457.485 335.669C457.485 335.669 645.641 284.851 570.14 158.831C570.14 158.831 516.438 38.3584 379.634 117.309C376.664 119.023 373.663 120.826 370.614 122.728Z" fill="#FFFF88"/>
<ellipse cx="43.6353" cy="43.6262" rx="43.6353" ry="43.6262" transform="matrix(0.866116 -0.499844 0.500156 0.865935 327.307 43.6211)" fill="#FFFF88"/>
<path d="M171.88 265.863L226.37 243.641C203.76 208.934 212.544 165.508 252.556 146.147C294.133 126.009 351.767 141.887 377.693 181.961L384.91 179.028C384.91 179.028 334.071 -9.05009 207.998 66.4196C207.998 66.4196 87.4749 120.099 166.459 256.846C168.174 259.815 169.977 262.815 171.88 265.863Z" fill="#EEEEEE"/>
<ellipse cx="43.6262" cy="43.6353" rx="43.6262" ry="43.6353" transform="matrix(-0.500156 -0.865935 0.866116 -0.499844 87.293 295.512)" fill="#EEEEEE"/>
<path d="M252.34 476.342L230.109 421.875C195.387 444.475 151.943 435.695 132.574 395.699C112.427 354.14 128.312 296.53 168.402 270.615L165.469 263.401C165.469 263.401 -22.6878 314.219 52.8134 440.24C52.8134 440.24 106.515 560.712 243.319 481.761C246.289 480.047 249.291 478.245 252.34 476.342Z" fill="#FFFF88"/>
<ellipse cx="43.6353" cy="43.6262" rx="43.6353" ry="43.6262" transform="matrix(-0.866116 0.499844 -0.500157 -0.865935 292.922 555.445)" fill="#FFFF88"/>
<path d="M451.068 333.204L396.578 355.425C419.187 390.133 410.404 433.558 370.391 452.92C328.814 473.058 271.181 457.18 245.254 417.106L238.037 420.039C238.037 420.039 288.877 608.117 414.95 532.647C414.95 532.647 535.472 478.967 456.488 342.22C454.774 339.251 452.971 336.252 451.068 333.204Z" fill="#EEEEEE"/>
<ellipse cx="43.6262" cy="43.6353" rx="43.6262" ry="43.6353" transform="matrix(0.500157 0.865935 -0.866116 0.499844 538.389 306.262)" fill="#EEEEEE"/>
<path fill-rule="evenodd" clip-rule="evenodd" d="M292.588 202.691C313.448 182.681 345.959 182.307 367.25 201.098C377.352 208.683 434.487 251.685 442.115 259.63C450.646 268.516 451.05 281.96 443.019 289.664C439.723 292.826 435.512 294.451 431.109 294.744L351.367 298.003L310.694 337.02L304.156 416.528C303.683 420.912 301.884 425.052 298.589 428.213C290.558 435.917 277.136 434.961 268.605 426.075C261.355 418.524 224.292 365.007 214.482 350.789C195.05 328.755 196.287 295.119 217.685 274.583L217.676 274.574L291.653 203.609C291.96 203.3 292.272 202.994 292.588 202.691ZM255.511 297.617L244.742 286.4C243.356 284.957 241.064 284.909 239.62 286.294L231.558 294.028C230.114 295.413 230.067 297.704 231.453 299.148L242.222 310.365L255.249 310.639L255.511 297.617ZM260.248 329.15L271.017 340.367C272.403 341.811 274.695 341.858 276.138 340.473L284.201 332.739C285.644 331.354 285.691 329.063 284.306 327.619L273.537 316.403L260.509 316.128L260.248 329.15ZM272.115 286.956L260.896 297.718L260.63 310.745L273.662 311.015L284.881 300.253C286.325 298.868 286.367 296.571 284.986 295.133L277.242 287.067C275.856 285.624 273.559 285.571 272.115 286.956ZM242.107 315.743L230.883 326.51C229.439 327.895 229.397 330.191 230.778 331.629L238.517 339.69C239.903 341.133 242.195 341.181 243.639 339.796L254.857 329.034L255.124 316.007L242.107 315.743ZM323.407 223.214C327.176 227.14 326.835 233.58 322.646 237.599C318.457 241.617 312.005 241.693 308.236 237.767C304.467 233.841 304.808 227.401 308.997 223.382C313.186 219.364 319.638 219.289 323.407 223.214ZM352.52 253.561C356.289 257.487 355.948 263.927 351.759 267.945C347.57 271.964 341.119 272.039 337.35 268.114C333.581 264.188 333.921 257.748 338.111 253.729C342.3 249.711 348.751 249.635 352.52 253.561ZM322.938 268.267C327.128 264.249 327.061 257.384 322.789 252.935C318.518 248.486 311.659 248.137 307.47 252.156C303.281 256.174 303.348 263.039 307.619 267.488C311.891 271.937 318.749 272.286 322.938 268.267ZM353.139 223.834C357.41 228.283 357.477 235.148 353.288 239.166C349.099 243.185 342.24 242.836 337.969 238.387C333.697 233.938 333.63 227.073 337.82 223.054C342.009 219.036 348.867 219.385 353.139 223.834Z" fill="#EEEEEE"/>
<path d="M1214.27 655.24H1224.02V643.928H1214.27V655.24ZM1214.05 715.832C1214.05 720.872 1216.18 723 1221.22 723H1231.86V713.704H1227.26C1225.7 713.704 1224.8 712.92 1224.8 711.24V673.496C1224.8 668.456 1222.67 666.328 1217.63 666.328H1206.99V675.624H1211.58C1213.15 675.624 1214.05 676.408 1214.05 678.088V715.832ZM1237.61 723H1248.48V696.456C1248.48 693.656 1248.7 691.08 1249.48 688.84C1251.72 680.664 1258.67 674.952 1267.4 674.952C1276.48 674.952 1278.04 681.224 1278.04 689.176V715.832C1278.04 720.872 1280.17 723 1285.21 723H1295.96V713.704H1291.37C1289.8 713.704 1288.91 712.92 1288.91 711.24V686.712C1288.91 672.264 1282.86 664.984 1269.42 664.984C1257.1 664.984 1250.38 673.048 1248.14 677.976H1247.92C1247.92 677.976 1248.14 676.52 1248.14 674.728V672.6C1248.14 668.456 1245.79 666.328 1240.97 666.328H1230.56V675.624H1235.15C1236.72 675.624 1237.61 676.408 1237.61 678.088V723ZM1294.5 714.376C1294.5 714.376 1302.01 724.344 1317.13 724.344C1329 724.344 1337.96 717.848 1337.96 707.768C1337.96 688.84 1307.05 691.192 1307.05 680.44C1307.05 675.96 1311.19 673.72 1317.58 673.72C1321.05 673.72 1326.09 675.176 1326.09 678.536V681.336H1335.83V675.96C1335.83 667.336 1324.07 664.984 1317.24 664.984C1305.7 664.984 1296.18 670.024 1296.18 680.888C1296.18 699.144 1327.1 698.024 1327.1 708.216C1327.1 713.144 1322.5 715.496 1317.24 715.496C1306.82 715.496 1300.1 707.096 1300.1 707.096L1294.5 714.376ZM1345.14 745.4H1356V720.2C1356 717.288 1355.78 715.272 1355.78 715.272H1356C1356 715.272 1360.82 724.344 1373.36 724.344C1388.15 724.344 1399.12 712.696 1399.12 694.664C1399.12 677.08 1389.38 664.984 1374.15 664.984C1360.04 664.984 1355.33 675.064 1355.33 675.064H1355.11C1355.11 675.064 1355.22 673.72 1355.22 672.04C1355.22 668.456 1353.32 666.328 1348.28 666.328H1338.08V675.624H1342.68C1344.24 675.624 1345.14 676.408 1345.14 678.088V745.4ZM1355.67 694.888C1355.67 680.44 1363.62 674.504 1372.02 674.504C1381.43 674.504 1388.04 682.456 1388.04 694.776C1388.04 707.656 1380.64 715.048 1371.68 715.048C1361.16 715.048 1355.67 704.968 1355.67 694.888ZM1406.8 655.24H1416.54V643.928H1406.8V655.24ZM1406.57 715.832C1406.57 720.872 1408.7 723 1413.74 723H1424.38V713.704H1419.79C1418.22 713.704 1417.33 712.92 1417.33 711.24V673.496C1417.33 668.456 1415.2 666.328 1410.16 666.328H1399.52V675.624H1404.11C1405.68 675.624 1406.57 676.408 1406.57 678.088V715.832ZM1430.14 723H1441V699.816C1441 696.344 1441.34 692.872 1442.35 689.624C1444.92 681.224 1451.31 676.296 1458.25 676.296C1460.04 676.296 1461.5 676.632 1461.5 676.632V665.88C1461.5 665.88 1460.04 665.656 1458.59 665.656C1449.85 665.656 1443.35 672.152 1440.67 680.44H1440.44C1440.44 680.44 1440.67 678.76 1440.67 676.52V672.936C1440.67 668.344 1438.31 666.328 1433.39 666.328H1423.08V675.624H1427.67C1429.24 675.624 1430.14 676.408 1430.14 678.088V723ZM1459.05 694.664C1459.05 711.464 1471.26 724.344 1489.18 724.344C1502.62 724.344 1511.02 716.056 1511.02 716.056L1506.32 708.328C1506.32 708.328 1499.49 714.936 1489.74 714.936C1479.66 714.936 1470.93 708.104 1470.25 696.008H1511.58C1511.58 696.008 1511.92 692.984 1511.92 691.528C1511.92 676.856 1503.41 664.984 1487.5 664.984C1471.37 664.984 1459.05 676.632 1459.05 694.664ZM1470.7 688.056C1472.38 678.648 1479.1 673.608 1487.39 673.608C1494.45 673.608 1500.38 678.648 1500.72 688.056H1470.7ZM1514.24 694.664C1514.24 712.248 1523.88 724.344 1539.22 724.344C1553.11 724.344 1557.81 714.04 1557.81 714.04H1558.04C1558.04 714.04 1557.92 715.272 1557.92 716.952C1557.92 720.76 1559.94 723 1564.87 723H1575.28V713.704H1570.69C1569.12 713.704 1568.23 712.92 1568.23 711.24V651.096C1568.23 646.056 1566.1 643.928 1561.06 643.928H1550.31V653.224H1554.9C1556.47 653.224 1557.36 654.008 1557.36 655.688V669.912C1557.36 672.04 1557.59 673.72 1557.59 673.72H1557.36C1557.36 673.72 1553 664.984 1539.89 664.984C1524.88 664.984 1514.24 676.632 1514.24 694.664ZM1541.35 714.936C1531.94 714.936 1525.33 706.984 1525.33 694.664C1525.33 681.784 1532.72 674.392 1541.57 674.392C1552.44 674.392 1557.7 684.472 1557.7 694.552C1557.7 709 1549.75 714.936 1541.35 714.936ZM1603.62 723H1614.04V719.08C1614.04 716.616 1613.81 714.824 1613.81 714.824H1614.04C1614.04 714.824 1619.19 724.344 1631.85 724.344C1646.74 724.344 1657.61 712.696 1657.61 694.664C1657.61 677.08 1647.97 664.984 1632.74 664.984C1619.41 664.984 1614.49 674.28 1614.49 674.28H1614.26C1614.26 674.28 1614.49 672.264 1614.49 669.576V651.096C1614.49 646.056 1612.36 643.928 1607.32 643.928H1596.57V653.224H1601.16C1602.73 653.224 1603.62 654.008 1603.62 655.688V723ZM1614.26 694.888C1614.26 680.44 1622.1 674.504 1630.5 674.504C1640.02 674.504 1646.63 682.456 1646.63 694.776C1646.63 707.656 1639.24 715.048 1630.28 715.048C1619.53 715.048 1614.26 704.968 1614.26 694.888ZM1658.93 733.08L1654.45 740.92C1654.45 740.92 1659.38 746.52 1667.78 746.52C1675.73 746.52 1682.56 741.928 1686.04 733.192L1708.44 677.864C1709.22 676.072 1710.23 675.624 1712.02 675.624H1713.48V666.328H1706.98C1702.39 666.328 1700.37 667.56 1698.69 672.04L1686.93 703.96C1685.81 706.872 1685.03 710.792 1685.03 710.792H1684.8C1684.8 710.792 1683.91 706.872 1682.79 703.96L1669.91 672.04C1668.12 667.56 1666.44 666.328 1661.84 666.328H1655.46V675.624H1656.8C1658.6 675.624 1659.6 676.072 1660.39 677.864L1679.76 722.776L1677.19 728.936C1675.06 733.976 1671.59 737.112 1667.22 737.112C1662.4 737.112 1658.93 733.192 1658.93 733.08Z" fill="#EEEEEE"/>
<path d="M226.152 657.705H235.896V646.393H226.152V657.705ZM225.928 718.297C225.928 723.337 228.056 725.465 233.096 725.465H243.736V716.169H239.144C237.576 716.169 236.68 715.385 236.68 713.705V675.961C236.68 670.921 234.552 668.793 229.512 668.793H218.872V678.089H223.464C225.032 678.089 225.928 678.873 225.928 680.553V718.297ZM249.491 725.465H260.355V698.921C260.355 696.121 260.579 693.545 261.363 691.305C263.603 683.129 270.547 677.417 279.283 677.417C288.355 677.417 289.923 683.689 289.923 691.641V718.297C289.923 723.337 292.051 725.465 297.091 725.465H307.843V716.169H303.251C301.683 716.169 300.787 715.385 300.787 713.705V689.177C300.787 674.729 294.739 667.449 281.299 667.449C268.979 667.449 262.259 675.513 260.019 680.441H259.795C259.795 680.441 260.019 678.985 260.019 677.193V675.065C260.019 670.921 257.667 668.793 252.851 668.793H242.435V678.089H247.027C248.595 678.089 249.491 678.873 249.491 680.553V725.465ZM313.665 657.705H323.409V646.393H313.665V657.705ZM313.441 718.297C313.441 723.337 315.569 725.465 320.609 725.465H331.249V716.169H326.657C325.089 716.169 324.193 715.385 324.193 713.705V675.961C324.193 670.921 322.065 668.793 317.025 668.793H306.385V678.089H310.977C312.545 678.089 313.441 678.873 313.441 680.553V718.297ZM337.453 704.745C337.453 723.673 351.901 725.913 359.069 725.913C361.421 725.913 362.877 725.689 362.877 725.689V716.057C362.877 716.057 361.869 716.281 360.301 716.281C356.157 716.281 348.317 714.825 348.317 703.513V677.529H361.869V668.793H348.317V653.225H337.677V668.793H330.061V677.529H337.453V704.745ZM363.737 709.561C363.737 720.873 373.257 726.809 383.001 726.809C396.553 726.809 401.033 715.609 401.033 715.609H401.257C401.257 715.609 401.033 717.065 401.033 718.969C401.033 723.001 403.049 725.465 408.089 725.465H418.281V716.169H413.689C412.121 716.169 411.225 715.385 411.225 713.705V689.625C411.225 677.081 406.297 667.449 387.929 667.449C382.441 667.449 368.329 668.793 368.329 678.089V683.689H378.521V680.441C378.521 676.745 385.129 676.073 387.817 676.073C396.665 676.073 400.361 679.657 400.361 689.625V690.185H397.897C388.377 690.185 363.737 691.305 363.737 709.561ZM374.713 709.001C374.713 698.585 389.497 698.137 397.673 698.137H400.473V700.041C400.473 708.441 394.537 718.073 385.353 718.073C378.185 718.073 374.713 713.593 374.713 709.001ZM423.763 704.745C423.763 723.673 438.211 725.913 445.379 725.913C447.731 725.913 449.187 725.689 449.187 725.689V716.057C449.187 716.057 448.179 716.281 446.611 716.281C442.467 716.281 434.627 714.825 434.627 703.513V677.529H448.179V668.793H434.627V653.225H423.987V668.793H416.371V677.529H423.763V704.745ZM456.754 657.705H466.498V646.393H456.754V657.705ZM456.53 718.297C456.53 723.337 458.658 725.465 463.698 725.465H474.338V716.169H469.746C468.178 716.169 467.282 715.385 467.282 713.705V675.961C467.282 670.921 465.154 668.793 460.114 668.793H449.474V678.089H454.066C455.634 678.089 456.53 678.873 456.53 680.553V718.297ZM493.546 725.465H506.09L523.338 680.329C524.01 678.649 525.13 678.089 527.034 678.089H528.154V668.793H522.89C517.962 668.793 515.946 670.025 514.266 674.505L502.17 707.097C501.05 710.233 500.154 714.489 500.154 714.489H499.93C499.93 714.489 499.034 710.233 497.914 707.097L485.706 674.505C484.026 670.025 482.122 668.793 477.082 668.793H471.482V678.089H472.602C474.394 678.089 475.402 678.649 476.074 680.329L493.546 725.465ZM525.854 697.129C525.854 713.929 538.062 726.809 555.982 726.809C569.422 726.809 577.822 718.521 577.822 718.521L573.118 710.793C573.118 710.793 566.286 717.401 556.542 717.401C546.462 717.401 537.726 710.569 537.054 698.473H578.382C578.382 698.473 578.718 695.449 578.718 693.993C578.718 679.321 570.206 667.449 554.302 667.449C538.174 667.449 525.854 679.097 525.854 697.129ZM537.502 690.521C539.182 681.113 545.902 676.073 554.19 676.073C561.246 676.073 567.182 681.113 567.518 690.521H537.502ZM604.289 697.017C604.289 714.265 617.841 726.809 634.753 726.809C651.665 726.809 665.329 714.265 665.329 697.017C665.329 679.881 651.665 667.449 634.753 667.449C617.841 667.449 604.289 679.881 604.289 697.017ZM615.377 697.017C615.377 685.257 624.113 676.857 634.753 676.857C645.505 676.857 654.241 685.257 654.241 697.017C654.241 708.889 645.505 717.401 634.753 717.401C624.113 717.401 615.377 708.889 615.377 697.017ZM672.182 725.465H683.046V677.529H696.486V668.793H683.046V667.113C683.046 656.585 690.662 655.241 694.918 655.241C696.598 655.241 697.718 655.465 697.718 655.465V646.169C697.718 646.169 696.038 645.833 693.574 645.833C686.406 645.833 672.182 648.185 672.182 666.889V668.793H665.126V677.529H672.182V725.465Z" fill="#EEEEEE"/>
<rect x="17.5625" y="749.598" width="881.438" height="204.935" rx="32.978" fill="white"/>
<path d="M140.272 767.848L135.862 799.953C158.699 798.73 177.04 814.88 175.256 839.294C173.411 864.667 149.914 887.777 123.597 889.103L123.008 893.352C123.008 893.352 226.974 920.911 225.678 840.005C225.678 840.005 233.27 767.746 146.08 767.746C144.189 767.746 142.256 767.78 140.272 767.848Z" fill="#006600"/>
<path d="M48.3463 843.678C48.3463 843.678 20.5863 923.98 117.467 936.15L123.93 889.161C123.36 889.2 122.803 889.24 122.232 889.246C96.1843 889.621 80.5377 868.401 85.4272 844.136C90.1238 820.832 111.695 802.106 134.694 800.105C135.198 800.059 135.697 800.042 136.189 800.01L136.575 797.225C136.575 797.225 128.152 795.379 116.435 795.379C93.6138 795.379 58.2962 802.373 48.3463 843.678Z" fill="#CCCCCC"/>
<path d="M129.794 821.848L134.727 837.092H150.69L137.775 846.514L142.709 861.759L129.794 852.337L116.879 861.759L121.812 846.514L108.898 837.092H124.861L129.794 821.848Z" fill="#006600"/>
<path d="M255.707 810.073H263.415V799.988H255.707V810.073ZM255.941 875.273C255.941 880.316 258.043 882.426 263.064 882.426H271.355V875.508H266.45C264.816 875.508 263.881 874.686 263.881 872.928V830.595C263.881 825.552 261.779 823.441 256.757 823.441H248.467V830.36H253.372C255.006 830.36 255.941 831.298 255.941 832.94V875.273ZM273.571 851.819C273.571 869.527 283.965 882.074 299.731 882.074C308.84 882.074 314.678 878.322 318.182 871.872H318.416C318.416 871.872 318.299 873.865 318.299 876.094V881.253C318.299 894.387 309.19 899.782 297.745 899.782C289.104 899.782 281.863 895.678 281.863 895.678L278.827 902.361C284.549 905.293 291.322 907.052 297.979 907.052C312.459 907.052 326.24 899.782 326.24 881.019V832.94C326.24 831.181 327.174 830.36 328.81 830.36H333.598V823.441H325.422C320.634 823.441 318.766 825.669 318.766 829.891C318.766 831.064 318.766 832.119 318.766 832.119H318.533C318.533 832.119 314.795 822.034 299.03 822.034C283.264 822.034 273.571 834.113 273.571 851.819ZM300.898 874.921C289.337 874.921 281.746 865.775 281.746 851.703C281.746 837.631 288.403 829.305 299.847 829.305C310.241 829.305 318.416 834.582 318.416 851.819C318.416 869.175 310.241 874.921 300.898 874.921ZM335.36 852.875C335.36 871.169 345.17 883.833 360.936 883.833C376.35 883.833 381.14 872.106 381.14 872.106H381.372C381.372 872.106 381.14 873.632 381.14 875.86C381.14 880.198 383.241 882.426 388.146 882.426H396.32V875.508H391.415C389.781 875.508 388.846 874.686 388.846 872.928V807.142C388.846 802.099 386.744 799.988 381.723 799.988H373.432V806.907H378.337C379.971 806.907 380.906 807.845 380.906 809.487V828.601C380.906 831.064 381.14 833.057 381.14 833.057H380.906C380.906 833.057 376.001 822.034 361.753 822.034C346.338 822.034 335.36 834.23 335.36 852.875ZM362.103 876.68C351.126 876.68 343.536 867.416 343.536 852.875C343.536 837.982 352.06 829.187 362.454 829.187C375.066 829.187 381.14 840.914 381.14 852.875C381.14 869.644 371.913 876.68 362.103 876.68ZM397.943 866.361C397.943 878.088 408.102 883.833 417.912 883.833C432.626 883.833 437.531 871.052 437.414 871.052H437.648C437.648 871.052 437.531 872.81 437.531 875.39C437.531 880.198 439.517 882.426 444.539 882.426H452.596V875.508H447.691C446.057 875.508 445.122 874.686 445.122 872.928V844.667C445.122 832.002 440.685 822.034 422.117 822.034C416.978 822.034 402.965 823.793 402.965 832.002V837.631H410.555V833.878C410.555 829.539 419.08 828.718 422 828.718C432.743 828.718 437.182 833.057 437.182 845.37V846.074H433.911C423.751 846.074 397.943 846.777 397.943 866.361ZM406.117 865.892C406.117 852.64 424.569 852.406 433.795 852.406H437.182V855.103C437.182 865.305 430.407 877.032 419.197 877.032C410.438 877.032 406.117 871.403 406.117 865.892Z" fill="#444444"/>
<path d="M485.384 905.879H493.324V877.853C493.324 874.804 493.091 872.693 493.091 872.693H493.324C493.324 872.693 498.229 883.833 512.593 883.833C527.775 883.833 538.87 871.637 538.87 852.992C538.87 834.699 529.06 822.034 513.294 822.034C497.762 822.034 493.091 833.644 493.091 833.644H492.857C492.857 833.644 492.974 832.002 492.974 829.657C492.974 825.552 490.989 823.441 485.967 823.441H477.91V830.36H482.815C484.45 830.36 485.384 831.298 485.384 832.94V905.879ZM493.091 853.11C493.091 836.341 502.317 829.305 512.127 829.305C523.104 829.305 530.695 838.569 530.695 852.992C530.695 868.003 522.169 876.797 511.777 876.797C499.515 876.797 493.091 864.953 493.091 853.11ZM542.026 866.361C542.026 878.088 552.186 883.833 561.996 883.833C576.71 883.833 581.615 871.052 581.498 871.052H581.732C581.732 871.052 581.615 872.81 581.615 875.39C581.615 880.198 583.6 882.426 588.622 882.426H596.68V875.508H591.775C590.141 875.508 589.206 874.686 589.206 872.928V844.667C589.206 832.002 584.768 822.034 566.2 822.034C561.061 822.034 547.048 823.793 547.048 832.002V837.631H554.638V833.878C554.638 829.539 563.164 828.718 566.083 828.718C576.827 828.718 581.265 833.057 581.265 845.37V846.074H577.994C567.835 846.074 542.026 846.777 542.026 866.361ZM550.201 865.892C550.201 852.64 568.652 852.406 577.879 852.406H581.265V855.103C581.265 865.305 574.491 877.032 563.281 877.032C554.522 877.032 550.201 871.403 550.201 865.892ZM603.137 882.426H611.078V852.875H616.45C618.552 852.875 621.355 853.11 622.641 855.455L634.318 876.562C637.004 881.488 638.639 882.426 644.479 882.426H649.966V875.508H646.814C643.661 875.508 642.492 874.921 641.442 872.928L630.814 853.814C628.946 850.295 627.195 849.474 627.195 849.474V849.241C627.195 849.241 628.712 848.654 631.632 845.018L648.565 823.441H638.873L623.808 843.142C622.173 845.253 619.37 845.957 617.151 845.957H611.078V806.79C611.078 801.747 608.976 799.988 603.955 799.988H595.664V806.907H600.569C602.203 806.907 603.137 807.845 603.137 809.487V882.426ZM656.161 810.073H663.869V799.988H656.161V810.073ZM656.395 875.273C656.395 880.316 658.497 882.426 663.519 882.426H671.811V875.508H666.906C665.27 875.508 664.337 874.686 664.337 872.928V830.595C664.337 825.552 662.235 823.441 657.213 823.441H648.921V830.36H653.826C655.46 830.36 656.395 831.298 656.395 832.94V875.273ZM672.508 873.514C672.508 873.514 679.748 883.833 695.047 883.833C706.725 883.833 715.601 877.149 715.601 867.299C715.601 847.716 682.668 850.764 682.668 837.513C682.668 831.767 687.573 828.953 695.748 828.953C699.601 828.953 705.908 830.595 705.908 834.934V837.748H713.382V832.705C713.382 824.38 701.469 822.034 695.514 822.034C683.72 822.034 674.61 827.311 674.61 837.982C674.61 856.979 707.543 854.634 707.543 867.533C707.543 873.749 701.703 876.914 695.164 876.914C683.603 876.914 677.062 868.003 677.062 868.003L672.508 873.514ZM725.577 860.967C725.577 880.668 739.24 882.895 746.014 882.895C747.999 882.895 749.4 882.661 749.4 882.661V875.508C749.4 875.508 748.35 875.742 746.714 875.742C742.277 875.742 733.518 873.982 733.518 860.146V830.126H748.233V823.441H733.518V807.142H725.694V823.441H717.869V830.126H725.577V860.967ZM751.868 866.361C751.868 878.088 762.028 883.833 771.838 883.833C786.552 883.833 791.457 871.052 791.34 871.052H791.574C791.574 871.052 791.457 872.81 791.457 875.39C791.457 880.198 793.442 882.426 798.464 882.426H806.521V875.508H801.616C799.981 875.508 799.046 874.686 799.046 872.928V844.667C799.046 832.002 794.609 822.034 776.041 822.034C770.903 822.034 756.889 823.793 756.889 832.002V837.631H764.48V833.878C764.48 829.539 773.005 828.718 775.924 828.718C786.669 828.718 791.106 833.057 791.106 845.37V846.074H787.836C777.676 846.074 751.868 846.777 751.868 866.361ZM760.042 865.892C760.042 852.64 778.494 852.406 787.719 852.406H791.106V855.103C791.106 865.305 784.332 877.032 773.121 877.032C764.363 877.032 760.042 871.403 760.042 865.892ZM813.329 882.426H821.271V854.166C821.271 851.351 821.504 848.654 822.204 846.191C824.89 836.458 833.533 829.539 843.576 829.539C854.903 829.539 856.304 837.748 856.304 847.012V875.273C856.304 880.316 858.407 882.426 863.428 882.426H871.72V875.508H866.815C865.18 875.508 864.246 874.686 864.246 872.928V844.901C864.246 830.36 859.107 822.034 844.509 822.034C830.73 822.034 823.256 831.533 821.154 836.927H820.92C820.92 836.927 821.154 835.051 821.154 832.705V830.008C821.154 825.552 818.935 823.441 814.03 823.441H805.855V830.36H810.76C812.394 830.36 813.329 831.298 813.329 832.94V882.426Z" fill="#006600"/>
</svg>
