<svg width="180" height="180" viewBox="0 0 180 180" fill="none" xmlns="http://www.w3.org/2000/svg">
<path fill-rule="evenodd" clip-rule="evenodd" d="M180 90C180 139.705 139.707 180 90 180C40.2933 180 0 139.705 0 90C0 40.2933 40.2933 -9.38773e-06 90 -9.38773e-06C139.707 -9.38773e-06 180 40.2933 180 90Z" fill="#010201"/>
<path d="M71.8132 141.834C115.773 141.834 139.813 105.417 139.813 73.838C139.813 72.8034 139.787 71.7727 139.747 70.7487C144.413 67.3754 148.466 63.1659 151.666 58.3753C147.386 60.2766 142.773 61.5594 137.947 62.1367C142.88 59.1794 146.667 54.4967 148.453 48.9167C143.827 51.6553 138.72 53.646 133.28 54.718C128.907 50.0726 122.707 47.1673 115.827 47.1673C102.627 47.1673 91.9331 57.87 91.9331 71.0633C91.9331 72.9393 92.1332 74.7633 92.5466 76.5126C72.6799 75.514 55.0798 66.0047 43.2932 51.5447C41.2398 55.074 40.0532 59.1793 40.0532 63.5553C40.0532 71.8473 44.2665 79.166 50.6932 83.4487C46.7732 83.3274 43.0798 82.2499 39.8665 80.4579C39.8531 80.5579 39.8532 80.658 39.8532 80.7633C39.8532 92.338 48.0932 102.001 59.0265 104.193C57.0265 104.738 54.9065 105.033 52.7331 105.033C51.1865 105.033 49.6931 104.881 48.2398 104.602C51.2798 114.097 60.1065 121.006 70.5598 121.201C62.3865 127.61 52.0799 131.43 40.8799 131.43C38.9599 131.43 37.0532 131.321 35.1865 131.099C45.7599 137.877 58.3199 141.834 71.8132 141.834Z" fill="white"/>
</svg>
