<svg width="180" height="180" viewBox="0 0 180 180" fill="none" xmlns="http://www.w3.org/2000/svg">
<path d="M180 90C180 139.705 139.705 180 90 180C40.2947 180 0 139.705 0 90C0 40.2947 40.2947 -9.38773e-06 90 -9.38773e-06C139.705 -9.38773e-06 180 40.2947 180 90Z" fill="#010201"/>
<path d="M78 108V72L109.176 90L78 108ZM147.492 61.1173C146.112 55.9546 142.047 51.888 136.883 50.508C127.525 48 90 48 90 48C90 48 52.4747 48 43.116 50.508C37.9533 51.888 33.8867 55.9546 32.508 61.1173C30 70.4746 30 90 30 90C30 90 30 109.525 32.508 118.883C33.8867 124.047 37.9533 128.112 43.116 129.492C52.4747 132 90 132 90 132C90 132 127.525 132 136.883 129.492C142.047 128.112 146.112 124.047 147.492 118.883C150 109.525 150 90 150 90C150 90 150 70.4746 147.492 61.1173Z" fill="white"/>
</svg>
